<svg width="24" height="24" viewBox="0 0 24 24" fill="none" xmlns="http://www.w3.org/2000/svg">
<g clip-path="url(#clip0_1405_14079)">
<rect x="6.95508" y="14.7632" width="14.0413" height="7.13722" fill="#CBD5E1"/>
<path d="M21.8652 2.40016C23.1799 2.40016 23.8916 3.93982 23.0398 4.94123L18.3655 10.4367L19.3844 11.756C21.062 13.9281 19.5137 17.08 16.7693 17.08H12.2733C7.81415 17.08 4.19932 13.4652 4.19932 9.0061C4.19932 5.35773 7.15691 2.40015 10.8053 2.40015L21.8652 2.40016Z" fill="#FF9318"/>
<path d="M3.33595 21.8974C2.02129 21.8974 1.3096 20.3578 2.16137 19.3564L6.8357 13.8609L6.64261 13.6479C4.74427 11.5541 6.22994 8.20175 9.0562 8.20175H15.198C18.4034 8.20175 21.0019 10.8002 21.0019 14.0056C21.0019 18.3642 17.4685 21.8975 13.11 21.8975L3.33595 21.8974Z" fill="#FF9318"/>
<path d="M17.3966 14.219L20.9655 14.7633C20.5762 18.8092 17.1768 21.8972 13.1122 21.8972H12.7295L14.4151 20.3687C15.7984 19.1143 16.7441 17.4502 17.1137 15.6198L17.3966 14.219Z" fill="#F47500"/>
</g>
<defs>
<clipPath id="clip0_1405_14079">
<rect width="24" height="24" fill="white"/>
</clipPath>
</defs>
</svg>
