<svg width="24" height="24" viewBox="0 0 24 24" fill="none" xmlns="http://www.w3.org/2000/svg">
<path d="M9.20521 17.7862C9.20521 19.2729 7.99998 20.4782 6.51325 20.4782C5.02652 20.4782 3.82129 19.2729 3.82129 17.7862C3.82129 16.2995 5.02652 15.0942 6.51325 15.0942C7.99998 15.0942 9.20521 16.2995 9.20521 17.7862ZM9.20521 17.7862V9.71031M18.1784 15.0942C18.1784 16.581 16.9732 17.7862 15.4865 17.7862C13.9997 17.7862 12.7945 16.581 12.7945 15.0942C12.7945 13.6075 13.9997 12.4023 15.4865 12.4023C16.9732 12.4023 18.1784 13.6075 18.1784 15.0942ZM18.1784 15.0942V7.01834M9.20521 9.71031L18.1784 7.01834M9.20521 9.71031V6.5774C9.20521 5.77613 9.73639 5.07194 10.5068 4.85181L12.3458 4.32638L16.4631 3.05952C17.3155 2.79725 18.1784 3.43459 18.1784 4.32638V7.01834" stroke="#CBD5E1" stroke-width="2" stroke-linecap="round"/>
</svg>
