<svg width="24" height="24" viewBox="0 0 24 24" fill="none" xmlns="http://www.w3.org/2000/svg">
<circle cx="11.8568" cy="6.52381" r="3.52381" stroke="#CBD5E1" stroke-width="2"/>
<path fill-rule="evenodd" clip-rule="evenodd" d="M16.0836 8.14027C16.2757 7.63829 16.381 7.09334 16.381 6.52381C16.381 6.37083 16.3734 6.21962 16.3585 6.07054C18.4139 7.43653 19.8131 9.71128 19.9826 12.3213C19.4331 12.0839 18.8271 11.9524 18.1905 11.9524C18.1691 11.9524 18.1477 11.9525 18.1264 11.9528C17.9109 10.4458 17.1649 9.10982 16.0836 8.14027ZM11.8571 21C13.1757 21 14.4211 20.6866 15.5229 20.1302C15.0093 19.7546 14.5779 19.2734 14.2606 18.7185C13.5195 19.0227 12.7079 19.1905 11.8571 19.1905C11.0064 19.1905 10.1948 19.0227 9.45368 18.7185C9.13639 19.2734 8.70496 19.7546 8.19139 20.1302C9.29315 20.6866 10.5385 21 11.8571 21ZM3.73164 12.3213C3.9012 9.71128 5.30042 7.43653 7.35576 6.07054C7.34093 6.21962 7.33333 6.37083 7.33333 6.52381C7.33333 7.09334 7.43858 7.63829 7.63068 8.14027C6.54937 9.10981 5.80334 10.4458 5.58788 11.9528C5.56656 11.9525 5.5452 11.9524 5.52381 11.9524C4.88714 11.9524 4.28118 12.0839 3.73164 12.3213Z" fill="#CBD5E1"/>
<circle cx="18.1908" cy="16.4762" r="3.52381" stroke="#CBD5E1" stroke-width="2"/>
<circle cx="5.52381" cy="16.4762" r="3.52381" stroke="#CBD5E1" stroke-width="2"/>
</svg>
