<svg width="24" height="24" viewBox="0 0 24 24" fill="none" xmlns="http://www.w3.org/2000/svg">
<path fill-rule="evenodd" clip-rule="evenodd" d="M16.0834 8.14029C16.2755 7.63831 16.3808 7.09336 16.3808 6.52383C16.3808 6.37084 16.3732 6.21964 16.3583 6.07056C18.4137 7.43654 19.8129 9.7113 19.9825 12.3213C19.4329 12.0839 18.827 11.9524 18.1903 11.9524C18.1689 11.9524 18.1475 11.9526 18.1262 11.9528C17.9108 10.4458 17.1647 9.10983 16.0834 8.14029ZM11.857 21C13.1755 21 14.4209 20.6866 15.5227 20.1302C15.0091 19.7546 14.5777 19.2734 14.2604 18.7185C13.5193 19.0227 12.7077 19.1905 11.857 19.1905C11.0062 19.1905 10.1946 19.0227 9.45348 18.7185C9.13619 19.2734 8.70477 19.7546 8.1912 20.1302C9.29296 20.6866 10.5384 21 11.857 21ZM3.73145 12.3213C3.901 9.7113 5.30023 7.43654 7.35557 6.07056C7.34073 6.21964 7.33314 6.37084 7.33314 6.52383C7.33314 7.09336 7.43839 7.63831 7.63049 8.14029C6.54918 9.10983 5.80315 10.4458 5.58769 11.9528C5.56637 11.9525 5.54501 11.9524 5.52362 11.9524C4.88695 11.9524 4.28099 12.0839 3.73145 12.3213Z" fill="#FF8700"/>
<circle cx="11.8578" cy="6.52381" r="3.52381" fill="#FF8700" stroke="#FF8700" stroke-width="2"/>
<circle cx="18.1908" cy="16.4762" r="3.52381" fill="#FF8700" stroke="#FF8700" stroke-width="2"/>
<circle cx="5.52381" cy="16.4762" r="3.52381" fill="#FF8700" stroke="#FF8700" stroke-width="2"/>
</svg>
