<svg width="24" height="24" viewBox="0 0 24 24" fill="none" xmlns="http://www.w3.org/2000/svg">
<path fill-rule="evenodd" clip-rule="evenodd" d="M6 2C3.79086 2 2 3.79086 2 6V18C2 20.2091 3.79086 22 6 22H18C20.2091 22 22 20.2091 22 18V6C22 3.79086 20.2091 2 18 2H6ZM14.6426 10.7098C14.4387 11.0874 14.3367 11.5186 14.3367 12.0035C14.3367 12.4883 14.4387 12.9196 14.6426 13.2972C14.8465 13.6748 15.1298 13.9709 15.4923 14.1853C15.8594 14.3951 16.2741 14.5 16.7363 14.5C17.3028 14.5 17.7877 14.3485 18.1911 14.0455C18.5944 13.7378 18.864 13.3182 19 12.7867H17.722C17.6268 12.9918 17.4909 13.148 17.3141 13.2552C17.1419 13.3625 16.9448 13.4161 16.7227 13.4161C16.3647 13.4161 16.0747 13.2879 15.8526 13.0315C15.6305 12.7751 15.5195 12.4324 15.5195 12.0035C15.5195 11.5746 15.6305 11.2319 15.8526 10.9755C16.0747 10.7191 16.3647 10.5909 16.7227 10.5909C16.9448 10.5909 17.1419 10.6445 17.3141 10.7517C17.4909 10.859 17.6268 11.0152 17.722 11.2203H19C18.864 10.6888 18.5944 10.2692 18.1911 9.96154C17.7877 9.65385 17.3028 9.5 16.7363 9.5C16.2741 9.5 15.8594 9.60723 15.4923 9.82168C15.1298 10.0315 14.8465 10.3275 14.6426 10.7098ZM8.28335 13.5979H6.50232L6.21681 14.465H5L6.72665 9.55594H8.07261L9.79926 14.465H8.56885L8.28335 13.5979ZM7.98424 12.6748L7.39283 10.8776L6.80822 12.6748H7.98424ZM13.0779 11.9476C13.3543 12.0082 13.5764 12.1503 13.7441 12.3741C13.9117 12.5932 13.9956 12.845 13.9956 13.1294C13.9956 13.5396 13.8551 13.866 13.5741 14.1084C13.2977 14.3462 12.9102 14.465 12.4117 14.465H10.1888V9.55594H12.3369C12.8218 9.55594 13.2002 9.67016 13.4722 9.8986C13.7486 10.127 13.8868 10.4371 13.8868 10.8287C13.8868 11.1177 13.812 11.3578 13.6625 11.549C13.5175 11.7401 13.3226 11.873 13.0779 11.9476ZM11.3512 11.542H12.1126C12.3029 11.542 12.4479 11.5 12.5476 11.4161C12.6519 11.3275 12.704 11.1993 12.704 11.0315C12.704 10.8636 12.6519 10.7354 12.5476 10.6469C12.4479 10.5583 12.3029 10.514 12.1126 10.514H11.3512V11.542ZM12.2078 13.5C12.4026 13.5 12.5522 13.4557 12.6564 13.3671C12.7652 13.2739 12.8196 13.141 12.8196 12.9685C12.8196 12.796 12.7629 12.6608 12.6496 12.5629C12.5409 12.465 12.389 12.4161 12.1942 12.4161H11.3512V13.5H12.2078Z" fill="#FF8700"/>
</svg>
