<svg width="24" height="24" viewBox="0 0 24 24" fill="none" xmlns="http://www.w3.org/2000/svg">
<path d="M11.9903 3C10.4821 3.00154 8.99836 3.38113 7.67486 4.10403C6.35135 4.82692 5.23035 5.87005 4.41441 7.13795C3.26681 8.93698 2.79474 11.0845 3.08215 13.1987C3.36957 15.3129 4.39783 17.2567 5.98409 18.6844C7.57034 20.1121 9.61175 20.9311 11.7453 20.9958C13.8788 21.0606 15.9662 20.3668 17.6362 19.038C19.0896 17.8686 20.1444 16.2774 20.6553 14.4836C21.1662 12.6899 21.108 10.782 20.4887 9.02273C19.8693 7.26347 18.7194 5.73951 17.1974 4.66084C15.6753 3.58218 13.8561 3.00191 11.9903 3ZM13.7941 5.03742C15.0404 5.35989 16.1776 6.00978 17.0879 6.91969C17.9982 7.82959 18.6484 8.96638 18.971 10.2121C17.463 10.2546 15.9911 10.6829 14.696 11.4562C14.0456 10.7188 13.3202 10.051 12.5314 9.46386C13.3261 8.12147 13.761 6.59689 13.7941 5.03742ZM11.9903 4.80303C11.9873 6.09673 11.6319 7.36518 10.9621 8.4722C10.8269 8.40007 10.7006 8.31894 10.5653 8.25583C9.404 7.64333 8.16225 7.19722 6.87657 6.93061C7.54672 6.25674 8.34347 5.72188 9.22105 5.35677C10.0986 4.99165 11.0397 4.80346 11.9903 4.80303ZM5.67706 8.55333C7.0916 8.74975 8.46157 9.18894 9.72655 9.85151L9.8438 9.92364C9.17812 10.5884 8.38775 11.1153 7.51798 11.4742C6.64821 11.8332 5.71613 12.017 4.77516 12.0152C4.78018 10.8038 5.09035 9.61325 5.67706 8.55333ZM10.1865 18.9929C8.94025 18.6704 7.80299 18.0205 6.89271 17.1106C5.98242 16.2007 5.33226 15.0639 5.00966 13.8182C6.21427 13.7914 7.40101 13.5213 8.4984 13.0239C9.59579 12.5266 10.5811 11.8124 11.3951 10.9243C12.047 11.4061 12.6511 11.9495 13.1988 12.547C12.2856 13.361 11.5475 14.3522 11.0297 15.4604C10.5118 16.5685 10.2249 17.7704 10.1865 18.9929ZM11.9903 19.2273C11.9922 18.2368 12.1983 17.2574 12.5955 16.3501C12.9927 15.4427 13.5727 14.6269 14.2991 13.9534C14.3533 14.0255 14.4074 14.0886 14.4525 14.1608C15.2083 15.3176 15.7689 16.5906 16.112 17.9291C14.9049 18.7763 13.4652 19.2297 11.9903 19.2273ZM17.5911 16.5227C17.1994 15.33 16.6536 14.1935 15.9676 13.142L15.7783 12.9167C16.8269 12.3335 18.0055 12.0235 19.2054 12.0152C19.1965 13.6576 18.627 15.2478 17.5911 16.5227Z" fill="#CBD5E1"/>
</svg>
