<svg width="24" height="24" viewBox="0 0 24 24" fill="none" xmlns="http://www.w3.org/2000/svg">
<path fill-rule="evenodd" clip-rule="evenodd" d="M12.4435 3H12.0872C7.06848 3 3 7.06848 3 12.0872V12.4435C3 16.6289 5.9932 20.2154 10.1111 20.9641C11.5992 21.2347 12.8991 19.9348 12.6285 18.4467L12.2618 16.4296C11.8138 13.9659 13.9659 11.8138 16.4296 12.2618L18.4467 12.6285C19.9348 12.8991 21.2347 11.5992 20.9641 10.1111C20.2154 5.99319 16.6289 3 12.4435 3ZM9.48324 15.5034C9.48324 16.2707 8.86124 16.8926 8.09397 16.8926C7.3267 16.8926 6.70471 16.2707 6.70471 15.5034C6.70471 14.7361 7.3267 14.1141 8.09397 14.1141C8.86124 14.1141 9.48324 14.7361 9.48324 15.5034ZM7.16779 12.2618C7.93506 12.2618 8.55706 11.6398 8.55706 10.8725C8.55706 10.1052 7.93506 9.48324 7.16779 9.48324C6.40053 9.48324 5.77853 10.1052 5.77853 10.8725C5.77853 11.6398 6.40053 12.2618 7.16779 12.2618ZM11.3356 7.16779C11.3356 7.93506 10.7136 8.55706 9.94632 8.55706C9.17905 8.55706 8.55706 7.93506 8.55706 7.16779C8.55706 6.40053 9.17905 5.77853 9.94632 5.77853C10.7136 5.77853 11.3356 6.40053 11.3356 7.16779ZM14.5772 8.55706C15.3445 8.55706 15.9665 7.93506 15.9665 7.16779C15.9665 6.40053 15.3445 5.77853 14.5772 5.77853C13.8099 5.77853 13.1879 6.40053 13.1879 7.16779C13.1879 7.93506 13.8099 8.55706 14.5772 8.55706Z" fill="#FF8700"/>
</svg>
