<svg width="24" height="24" viewBox="0 0 24 24" fill="none" xmlns="http://www.w3.org/2000/svg">
<path fill-rule="evenodd" clip-rule="evenodd" d="M16.4547 3.65562C16.0199 3.28409 15.5448 2.96957 15.0405 2.71775C14.2072 2.26132 13.2481 2 12.2207 2C12.186 2 12.1515 2.0003 12.117 2.00088C11.6124 1.99271 11.1068 2.04122 10.6092 2.14662C9.24966 2.43189 8.00234 3.13026 7.02548 4.15312C6.04862 5.17597 5.38627 6.47721 5.12246 7.89174C4.92981 8.95233 4.96482 10.044 5.22499 11.0889C5.48516 12.1339 5.96408 13.1063 6.6276 13.9368C7.24338 14.6587 7.59634 15.5818 7.62519 16.5458V17H11V14C11 13.4477 11.4477 13 12 13C12.5523 13 13 13.4477 13 14V17H16.376V16.7185C16.4054 15.6542 16.7818 14.6317 17.4436 13.8187C18.6032 12.3285 19.1498 10.4232 18.9646 8.51681C18.7795 6.61039 17.8775 4.8569 16.4547 3.63744V3.65562ZM16.376 19H7.62519V19.2729C7.62519 19.9962 7.90177 20.6898 8.3941 21.2012C8.88643 21.7127 9.55417 22 10.2504 22H13.7507C14.447 22 15.1147 21.7127 15.6071 21.2012C16.0994 20.6898 16.376 19.9962 16.376 19.2729V19Z" fill="#FF8700"/>
</svg>
