<svg width="24" height="24" viewBox="0 0 24 24" fill="none" xmlns="http://www.w3.org/2000/svg">
<path d="M16.4547 3.65562C15.6499 2.96801 14.7075 2.47572 13.6962 2.21465C12.6849 1.95359 11.6303 1.93035 10.6092 2.14662C9.24967 2.43189 8.00234 3.13026 7.02548 4.15312C6.04862 5.17597 5.38627 6.47721 5.12246 7.89174C4.92981 8.95233 4.96482 10.044 5.22499 11.0889C5.48516 12.1339 5.96408 13.1063 6.6276 13.9368C7.24338 14.6587 7.59634 15.5818 7.62519 16.5458V19.2729C7.62519 19.9962 7.90177 20.6898 8.3941 21.2012C8.88643 21.7127 9.55417 22 10.2504 22H13.7507C14.447 22 15.1147 21.7127 15.6071 21.2012C16.0994 20.6898 16.376 19.9962 16.376 19.2729V16.7185C16.4054 15.6542 16.7818 14.6317 17.4436 13.8187C18.6032 12.3285 19.1498 10.4232 18.9646 8.51681C18.7795 6.61039 17.8775 4.8569 16.4547 3.63744V3.65562ZM14.6258 19.2729C14.6258 19.514 14.5336 19.7452 14.3695 19.9157C14.2054 20.0862 13.9828 20.1819 13.7507 20.1819H10.2504C10.0183 20.1819 9.79576 20.0862 9.63165 19.9157C9.46754 19.7452 9.37535 19.514 9.37535 19.2729V18.3638H14.6258V19.2729ZM16.0872 12.6915C15.2073 13.7756 14.694 15.1295 14.6258 16.5458H12.8757V13.8187C12.8757 13.5776 12.7835 13.3464 12.6194 13.1759C12.4553 13.0054 12.2327 12.9096 12.0006 12.9096C11.7685 12.9096 11.5459 13.0054 11.3818 13.1759C11.2177 13.3464 11.1255 13.5776 11.1255 13.8187V16.5458H9.37535C9.35226 15.1532 8.85638 13.8139 7.97522 12.7642C7.39385 12.0406 7.00291 11.1728 6.84051 10.2456C6.67811 9.31826 6.7498 8.36309 7.04859 7.47315C7.34737 6.58322 7.86305 5.7889 8.54535 5.16765C9.22765 4.54639 10.0533 4.11941 10.9417 3.92833C11.7053 3.76502 12.4943 3.78038 13.2514 3.9733C14.0085 4.16622 14.7148 4.53186 15.3189 5.04368C15.9231 5.55549 16.4099 6.20063 16.7441 6.93226C17.0783 7.66389 17.2515 8.46365 17.2511 9.27347C17.2575 10.5187 16.846 11.7274 16.0872 12.6915Z" fill="#CBD5E1"/>
</svg>
