<svg width="24" height="24" viewBox="0 0 24 24" fill="none" xmlns="http://www.w3.org/2000/svg">
<path fill-rule="evenodd" clip-rule="evenodd" d="M18.3553 5.65257C17.2186 4.51638 15.7985 3.70486 14.2423 3.30221C14.201 5.2495 13.658 7.15322 12.6657 8.82946C13.6506 9.56266 14.5564 10.3964 15.3685 11.3173C16.9857 10.3517 18.8236 9.81681 20.7066 9.7638C20.3038 8.20825 19.4919 6.78876 18.3553 5.65257ZM10.7061 7.59117C11.5424 6.20886 11.9862 4.62495 11.9899 3.00952C10.803 3.01006 9.62783 3.24505 8.532 3.70097C7.43618 4.15689 6.44128 4.82476 5.60448 5.6662C7.20989 5.99912 8.76045 6.55618 10.2106 7.321C10.3154 7.3699 10.4159 7.42748 10.5174 7.48565C10.5795 7.52121 10.642 7.557 10.7061 7.59117ZM9.16322 9.31351C7.58365 8.48616 5.87298 7.93776 4.10665 7.69249C3.37404 9.016 2.98673 10.5026 2.98047 12.0152C4.15544 12.0175 5.31932 11.788 6.40539 11.3398C7.49147 10.8916 8.4784 10.2337 9.30962 9.40357L9.16322 9.31351ZM5.62462 18.3779C6.76129 19.5141 8.18137 20.3256 9.73757 20.7282C9.78554 19.2017 10.1437 17.701 10.7904 16.3172C11.437 14.9335 12.3586 13.6958 13.499 12.6794C12.8151 11.9332 12.0608 11.2547 11.2467 10.6531C10.2303 11.762 8.99994 12.6539 7.62964 13.2749C6.25934 13.8959 4.77747 14.2333 3.27328 14.2666C3.6761 15.8222 4.48795 17.2417 5.62462 18.3779ZM12.7456 17.4282C12.2496 18.5612 11.9924 19.7842 11.9899 21.0209C13.8317 21.024 15.6293 20.4578 17.1366 19.3999C16.7082 17.7286 16.0082 16.139 15.0644 14.6944C15.0253 14.6318 14.9807 14.5746 14.9344 14.5153C14.9141 14.4893 14.8936 14.4629 14.873 14.4355C13.9658 15.2765 13.2416 16.2952 12.7456 17.4282ZM16.9564 13.4224C17.813 14.7353 18.4945 16.1545 18.9835 17.6438C20.2771 16.0518 20.9882 14.0661 20.9994 12.0152C19.501 12.0257 18.0293 12.4128 16.7199 13.1409L16.9564 13.4224Z" fill="#FF8700"/>
</svg>
