<svg width="24" height="24" viewBox="0 0 24 24" fill="none" xmlns="http://www.w3.org/2000/svg">
<path d="M15.0367 4V11.8462L19.5902 17.8223C19.812 18.1117 19.9502 18.4597 19.9888 18.8264C20.0275 19.193 19.9652 19.5635 19.8089 19.8953C19.6526 20.2271 19.4088 20.5067 19.1054 20.7021C18.802 20.8975 18.4513 21.0008 18.0935 21H6.90649C6.54875 21.0008 6.19804 20.8975 5.89463 20.7021C5.59121 20.5067 5.34738 20.2271 5.19111 19.8953C5.03484 19.5635 4.97247 19.193 5.01116 18.8264C5.04984 18.4597 5.18801 18.1117 5.40981 17.8223L9.96326 11.8462V4M8.06071 4H16.9393" stroke="#CBD5E1" stroke-width="2" stroke-linecap="round" stroke-linejoin="round"/>
</svg>
