<svg width="24" height="24" viewBox="0 0 24 24" fill="none" xmlns="http://www.w3.org/2000/svg">
<path fill-rule="evenodd" clip-rule="evenodd" d="M12 22C17.5228 22 22 17.5228 22 12C22 6.47715 17.5228 2 12 2C6.47715 2 2 6.47715 2 12C2 17.5228 6.47715 22 12 22ZM10.8672 9.49207C10.2438 9.74876 9.74873 10.2438 9.49203 10.8672L8.09872 14.2511C7.6709 15.2901 8.70989 16.3291 9.74887 15.9012L13.1326 14.5079C13.756 14.2512 14.2511 13.7562 14.5078 13.1327L15.9011 9.74891C16.3289 8.70991 15.2899 7.67089 14.2509 8.09872L10.8672 9.49207Z" fill="#FF8700"/>
</svg>
