<svg width="24" height="24" viewBox="0 0 24 24" fill="none" xmlns="http://www.w3.org/2000/svg">
<path d="M15.0367 4V11.8462L19.5902 17.8223C19.812 18.1117 19.9502 18.4597 19.9888 18.8264C20.0275 19.193 19.9652 19.5635 19.8089 19.8953C19.6526 20.2271 19.4088 20.5067 19.1054 20.7021C18.802 20.8975 18.4513 21.0008 18.0935 21H6.90649C6.54875 21.0008 6.19804 20.8975 5.89463 20.7021C5.59121 20.5067 5.34738 20.2271 5.19111 19.8953C5.03484 19.5635 4.97247 19.193 5.01116 18.8264C5.04984 18.4597 5.18801 18.1117 5.40981 17.8223L9.96326 11.8462V4M8.06071 4H16.9393" stroke="#FF8700" stroke-width="2" stroke-linecap="round" stroke-linejoin="round"/>
<path d="M18.6448 17.8757L14.6985 12H10.3015L6.35517 17.8757C6.16294 18.1602 6.04319 18.5024 6.00967 18.8629C5.97614 19.2234 6.0302 19.5877 6.16563 19.9139C6.30106 20.2401 6.51239 20.515 6.77535 20.7071C7.03831 20.8992 7.34225 21.0007 7.65229 21H17.3477C17.6578 21.0007 17.9617 20.8992 18.2247 20.7071C18.4876 20.515 18.6989 20.2401 18.8344 19.9139C18.9698 19.5877 19.0239 19.2234 18.9903 18.8629C18.9568 18.5024 18.8371 18.1602 18.6448 17.8757Z" fill="#FF8700"/>
</svg>
