<svg width="24" height="24" viewBox="0 0 24 24" fill="none" xmlns="http://www.w3.org/2000/svg">
<g id="Group 1597880525">
<path id="Vector 5454" d="M5.27539 10.9924V18.1824C5.27539 19.287 6.17082 20.1824 7.27539 20.1824H17.0604C18.165 20.1824 19.0604 19.287 19.0604 18.1824V10.9924" stroke="#94A3B8" stroke-width="2"/>
<path id="Rectangle 34625909" d="M11.4126 3.20264C11.8888 3.01111 12.4204 3.00996 12.8973 3.19943L22.7315 7.10582C24.4254 7.77868 24.4099 10.1816 22.7075 10.8326L12.8732 14.5932C12.4105 14.7701 11.8986 14.769 11.4367 14.5902L1.72512 10.8297C0.0332129 10.1745 0.0176989 7.78616 1.70095 7.10909L11.4126 3.20264Z" fill="#94A3B8"/>
<path id="Vector 5455" d="M22 14C22 14.5523 22.4477 15 23 15C23.5523 15 24 14.5523 24 14L22 14ZM22 9L22 14L24 14L24 9L22 9Z" fill="#94A3B8"/>
</g>
</svg>
