<svg width="301" height="422" viewBox="0 0 301 422" fill="none" xmlns="http://www.w3.org/2000/svg">
<rect width="301" height="422" fill="white"/>
<path d="M43.4797 37.2344V48.0625H41.4953V45.375H39.5734V43.7969H41.4953V42.375H39.5734V40.7656H41.4953V37.2344H43.4797ZM39.4328 38.7188V40.2969H31.5266V38.7188H34.5891V37.2031H36.5734V38.7188H39.4328ZM35.5578 40.7969C37.5109 40.7969 38.9172 41.9531 38.9328 43.5938C38.9172 45.2344 37.5109 46.375 35.5578 46.375C33.6203 46.375 32.2141 45.2344 32.2297 43.5938C32.2141 41.9531 33.6203 40.7969 35.5578 40.7969ZM35.5578 42.3438C34.6828 42.3594 34.0734 42.7969 34.0891 43.5938C34.0734 44.4062 34.6828 44.8594 35.5578 44.8594C36.4172 44.8594 37.0422 44.4062 37.0578 43.5938C37.0422 42.7969 36.4172 42.3594 35.5578 42.3438ZM43.7766 49.5938V51.1875H34.0109V47.1406H36.0266V49.5938H43.7766ZM54.2016 38.1719V39.7656H51.3734C51.3891 41.4219 52.3813 43.0234 54.6547 43.6875L53.7016 45.25C52.1313 44.7734 51.0453 43.8203 50.4203 42.5938C49.7875 44.0312 48.6313 45.1719 46.9203 45.7344L45.9047 44.1562C48.2641 43.4141 49.3266 41.5703 49.3578 39.7656H46.4516V38.1719H54.2016ZM57.4047 37.2188V40.5156H59.3266V42.1406H57.4047V45.6562H55.4047V37.2188H57.4047ZM52.7484 45.9375C55.7016 45.9219 57.5453 46.9375 57.5453 48.6719C57.5453 50.4062 55.7016 51.4375 52.7484 51.4375C49.7328 51.4375 47.8734 50.4062 47.8734 48.6719C47.8734 46.9375 49.7328 45.9219 52.7484 45.9375ZM52.7484 47.4844C50.8734 47.4844 49.8578 47.875 49.8734 48.6719C49.8578 49.4844 50.8734 49.8906 52.7484 49.8906C54.5922 49.8906 55.5766 49.4844 55.5766 48.6719C55.5766 47.875 54.5922 47.4844 52.7484 47.4844ZM65.1891 41.5469C65.1891 43.7031 65.9703 45.8594 67.9859 46.9531L66.8922 48.4062C65.6109 47.75 64.7594 46.5938 64.2672 45.2031C63.7672 46.7188 62.9156 48 61.6266 48.75L60.4859 47.25C62.5328 46.0625 63.2984 43.75 63.3141 41.5469V41.2188H61.0172V39.625H63.3141V37.7031H65.1734V39.625H67.4234V41.2188H65.1891V41.5469ZM73.0484 37.2188V51.4375H71.1578V37.2188H73.0484ZM70.1422 37.4531V50.7812H68.2672V44.2344H66.5953V42.6094H68.2672V37.4531H70.1422ZM87.3641 37.2188V45.8125H85.3797V43.0156H83.5359V41.3906H85.3797V37.2188H87.3641ZM87.3641 46.4219V51.2812H77.8016V46.4219H87.3641ZM79.8016 47.9844V49.6875H85.4109V47.9844H79.8016ZM83.7859 38.4531V40.0469H75.4109V38.4531H78.6297V37.0938H80.5984V38.4531H83.7859ZM79.6141 40.5156C81.6141 40.5156 83.0203 41.5781 83.0203 43.0625C83.0203 44.6094 81.6141 45.6406 79.6141 45.6406C77.6297 45.6406 76.1922 44.6094 76.1922 43.0625C76.1922 41.5781 77.6297 40.5156 79.6141 40.5156ZM79.6141 42.0156C78.6922 42.0156 78.0984 42.3906 78.1141 43.0625C78.0984 43.7812 78.6922 44.1719 79.6141 44.1719C80.5203 44.1719 81.1141 43.7812 81.1141 43.0625C81.1141 42.3906 80.5203 42.0156 79.6141 42.0156ZM98.4453 38.4844V40.0625H90.0078V38.4844H93.2422V37.1406H95.2266V38.4844H98.4453ZM94.2266 40.5156C96.2891 40.5156 97.7266 41.5781 97.7266 43.1406C97.7266 44.7031 96.2891 45.7656 94.2266 45.7656C92.1641 45.7656 90.6953 44.7031 90.6953 43.1406C90.6953 41.5781 92.1641 40.5156 94.2266 40.5156ZM94.2266 42.0156C93.2734 42.0156 92.6328 42.4062 92.6484 43.1406C92.6328 43.8594 93.2734 44.2344 94.2266 44.2344C95.1797 44.2344 95.8359 43.8594 95.8359 43.1406C95.8359 42.4062 95.1797 42.0156 94.2266 42.0156ZM101.289 37.2188V40.9062H103.211V42.5312H101.289V46.1406H99.2891V37.2188H101.289ZM101.289 46.7344V51.4375H99.2891V48.3281H91.7109V46.7344H101.289ZM108.12 45.75V46.9531H113.98V45.75H115.964V51.2812H106.152V45.75H108.12ZM108.12 49.7188H113.98V48.4688H108.12V49.7188ZM117.605 43.4219V45.0312H104.636V43.4219H117.605ZM112.152 37.8438C112.152 39.2656 113.792 40.875 116.964 41.2344L116.261 42.7969C113.808 42.4844 112.034 41.4688 111.12 40.0938C110.206 41.4688 108.425 42.4844 105.995 42.7969L105.277 41.2344C108.448 40.8594 110.089 39.2969 110.105 37.8438V37.3594H112.152V37.8438ZM131.17 37.2344V47.6094H129.17V37.2344H131.17ZM131.545 49.5938V51.1875H121.639V46.6094H123.655V49.5938H131.545ZM124.717 39.3906C124.702 41.2656 125.702 43.1094 128.045 43.8594L127.03 45.4219C125.428 44.8906 124.319 43.8281 123.686 42.4688C123.053 43.9297 121.913 45.1016 120.248 45.6719L119.217 44.0938C121.608 43.2969 122.639 41.3125 122.639 39.3906V38.0156H124.717V39.3906ZM142.002 38.7031V40.2656H139.127C139.142 41.7266 140.22 43.2109 142.502 43.7969L141.58 45.3281C139.963 44.9219 138.822 44.0234 138.173 42.8594C137.556 44.1875 136.416 45.2266 134.736 45.7031L133.798 44.1562C136.08 43.5078 137.127 41.8828 137.142 40.2656H134.283V38.7031H137.142V37.1562H139.158V38.7031H142.002ZM145.877 37.2188V45.8125H143.892V42.625H141.58V41.0312H143.892V37.2188H145.877ZM141.017 46.0469C144.048 46.0625 145.908 47.0156 145.923 48.7188C145.908 50.4375 144.048 51.4375 141.017 51.4375C138.002 51.4375 136.127 50.4375 136.127 48.7188C136.127 47.0156 138.002 46.0625 141.017 46.0469ZM141.017 47.5781C139.127 47.5781 138.111 47.9531 138.111 48.7188C138.111 49.5 139.127 49.9219 141.017 49.9219C142.939 49.9219 143.939 49.5 143.939 48.7188C143.939 47.9531 142.939 47.5781 141.017 47.5781ZM153.895 40.4375C153.895 43.1094 154.973 45.7031 157.348 46.7344L156.13 48.3281C154.552 47.5547 153.497 46.1406 152.911 44.3906C152.286 46.25 151.192 47.7734 149.567 48.5781L148.317 46.9531C150.755 45.8594 151.864 43.1094 151.88 40.4375V38.3125H153.895V40.4375ZM160.52 37.2188V51.4688H158.552V43.2969H155.755V41.6875H158.552V37.2188H160.52Z" fill="black"/>
<path d="M66.4547 378.438C66.4547 381.109 67.5328 383.703 69.9078 384.734L68.6891 386.328C67.1109 385.555 66.0563 384.141 65.4703 382.391C64.8453 384.25 63.7516 385.773 62.1266 386.578L60.8766 384.953C63.3141 383.859 64.4234 381.109 64.4391 378.438V376.312H66.4547V378.438ZM73.0797 375.219V389.469H71.1109V381.297H68.3141V379.688H71.1109V375.219H73.0797ZM82.9922 375.344C86.2578 375.344 88.1484 376.203 88.1641 377.781C88.1484 379.344 86.2578 380.203 82.9922 380.203C79.7109 380.203 77.8047 379.344 77.8047 377.781C77.8047 376.203 79.7109 375.344 82.9922 375.344ZM82.9922 376.812C80.8984 376.812 79.8828 377.125 79.8984 377.781C79.8828 378.469 80.8984 378.75 82.9922 378.75C85.1016 378.75 86.1016 378.469 86.1016 377.781C86.1016 377.125 85.1016 376.812 82.9922 376.812ZM89.4766 380.844V382.406H83.9766V383.359H87.8984V386.984H79.9766V387.844H88.2734V389.344H78.0234V385.594H85.9297V384.812H78.0078V383.359H81.9766V382.406H76.5078V380.844H89.4766ZM109.552 375.219V389.438H107.677V375.219H109.552ZM106.583 375.531V388.812H104.692V384.125H102.677V382.516H104.692V380.578H102.942C102.278 382.922 100.841 384.906 98.1766 386.484L97.0047 385.078C99.8875 383.375 101.153 381.305 101.427 378.516H97.8328V376.906H103.411C103.411 377.617 103.364 378.305 103.286 378.969H104.692V375.531H106.583ZM124.636 375.234V386.062H122.652V383.375H120.73V381.797H122.652V380.375H120.73V378.766H122.652V375.234H124.636ZM120.589 376.719V378.297H112.683V376.719H115.745V375.203H117.73V376.719H120.589ZM116.714 378.797C118.667 378.797 120.073 379.953 120.089 381.594C120.073 383.234 118.667 384.375 116.714 384.375C114.777 384.375 113.37 383.234 113.386 381.594C113.37 379.953 114.777 378.797 116.714 378.797ZM116.714 380.344C115.839 380.359 115.23 380.797 115.245 381.594C115.23 382.406 115.839 382.859 116.714 382.859C117.573 382.859 118.198 382.406 118.214 381.594C118.198 380.797 117.573 380.359 116.714 380.344ZM124.933 387.594V389.188H115.167V385.141H117.183V387.594H124.933ZM141.095 386.188V387.812H128.08V386.188H133.58V383.406H135.564V386.188H141.095ZM139.955 377.172V378.766H135.611C135.775 380.344 137.384 381.945 140.627 382.344L139.908 383.891C137.361 383.57 135.525 382.516 134.58 381.047C133.619 382.516 131.798 383.57 129.252 383.891L128.517 382.344C131.759 381.945 133.369 380.344 133.548 378.766H129.205V377.172H133.58V375.391H135.564V377.172H139.955ZM156.508 381.719V383.344H143.508V381.719H156.508ZM155.023 379.141V380.719H145.086V375.594H154.945V377.203H147.07V379.141H155.023ZM149.977 384.203C153.055 384.203 154.914 385.141 154.93 386.812C154.914 388.5 153.055 389.438 149.977 389.438C146.867 389.438 144.992 388.5 144.992 386.812C144.992 385.141 146.867 384.203 149.977 384.203ZM149.977 385.719C148.008 385.719 147.008 386.094 147.023 386.812C147.008 387.562 148.008 387.922 149.977 387.922C151.898 387.922 152.914 387.562 152.93 386.812C152.914 386.094 151.898 385.719 149.977 385.719ZM167.373 376.484V378.062H158.936V376.484H162.17V375.141H164.155V376.484H167.373ZM163.155 378.516C165.217 378.516 166.655 379.578 166.655 381.141C166.655 382.703 165.217 383.766 163.155 383.766C161.092 383.766 159.623 382.703 159.623 381.141C159.623 379.578 161.092 378.516 163.155 378.516ZM163.155 380.016C162.202 380.016 161.561 380.406 161.577 381.141C161.561 381.859 162.202 382.234 163.155 382.234C164.108 382.234 164.764 381.859 164.764 381.141C164.764 380.406 164.108 380.016 163.155 380.016ZM170.217 375.219V378.906H172.139V380.531H170.217V384.141H168.217V375.219H170.217ZM170.217 384.734V389.438H168.217V386.328H160.639V384.734H170.217ZM186.161 376.453V377.844C186.145 379.578 186.145 381.531 185.63 384.391L183.677 384.219C184.145 381.617 184.161 379.68 184.161 378.031H175.645V376.453H186.161ZM187.333 386.078V387.703H174.364V386.078H177.13V381.609H179.114V386.078H180.677V381.609H182.645V386.078H187.333ZM197.87 376.172V377.766H195.042C195.058 379.422 196.05 381.023 198.323 381.688L197.37 383.25C195.8 382.773 194.714 381.82 194.089 380.594C193.456 382.031 192.3 383.172 190.589 383.734L189.573 382.156C191.933 381.414 192.995 379.57 193.027 377.766H190.12V376.172H197.87ZM201.073 375.219V378.516H202.995V380.141H201.073V383.656H199.073V375.219H201.073ZM196.417 383.938C199.37 383.922 201.214 384.938 201.214 386.672C201.214 388.406 199.37 389.438 196.417 389.438C193.402 389.438 191.542 388.406 191.542 386.672C191.542 384.938 193.402 383.922 196.417 383.938ZM196.417 385.484C194.542 385.484 193.527 385.875 193.542 386.672C193.527 387.484 194.542 387.891 196.417 387.891C198.261 387.891 199.245 387.484 199.245 386.672C199.245 385.875 198.261 385.484 196.417 385.484ZM222.695 375.219V389.438H220.68V375.219H222.695ZM210.414 381.734C212.148 381.742 214.125 381.727 216.117 381.625C216.43 380.016 216.5 378.758 216.523 377.797H211.586V376.203H218.508V377C218.508 377.992 218.508 379.469 218.164 381.5C218.734 381.469 219.305 381.422 219.867 381.359L220.008 382.844C218.695 383.023 217.359 383.141 216.039 383.219V388.656H214.039V383.312C212.859 383.352 211.727 383.359 210.664 383.359L210.414 381.734ZM237.155 375.219V380.781H239.248V382.422H237.155V389.438H235.186V375.219H237.155ZM234.217 377.344V378.938H225.858V377.344H229.077V375.438H231.077V377.344H234.217ZM230.077 379.734C232.155 379.734 233.702 381.141 233.702 383.125C233.702 385.109 232.155 386.516 230.077 386.516C227.983 386.516 226.436 385.109 226.436 383.125C226.436 381.141 227.983 379.734 230.077 379.734ZM230.077 381.344C229.077 381.359 228.342 382.031 228.342 383.125C228.342 384.234 229.077 384.891 230.077 384.875C231.077 384.891 231.795 384.234 231.795 383.125C231.795 382.031 231.077 381.359 230.077 381.344Z" fill="black"/>
<rect x="175.5" y="24.5" width="14" height="36" stroke="black"/>
<line x1="190" y1="24.5" x2="284" y2="24.5" stroke="black"/>
<line x1="190" y1="60.5" x2="284" y2="60.5" stroke="black"/>
<line x1="283.5" y1="24" x2="283.5" y2="61" stroke="black"/>
<line x1="190" y1="37.5" x2="284" y2="37.5" stroke="black"/>
<line x1="219.5" y1="24" x2="219.5" y2="61" stroke="black"/>
<line x1="253.5" y1="24" x2="253.5" y2="61" stroke="black"/>
<rect x="26.5" y="81.5" width="256" height="193" stroke="black"/>
<path d="M202.758 27.6641V29.3281H203.773V29.9453H202.758V31.6172H202.016V27.6641H202.758ZM200.68 28.125V28.7266H198.305V30.6562C199.668 30.6523 200.438 30.6016 201.312 30.4297L201.398 31.0234C200.453 31.2266 199.625 31.2578 198.125 31.2578H197.57V28.125H200.68ZM202.758 31.9609V34.5703H198.289V31.9609H202.758ZM199.016 32.5547V33.9766H202.023V32.5547H199.016ZM209.977 27.6719V31.6562H209.234V27.6719H209.977ZM209.977 32.0078V34.5781H205.375V32.0078H209.977ZM206.109 32.6016V33.9766H209.25V32.6016H206.109ZM206.18 28.0234C207.25 28.0234 208.039 28.6953 208.039 29.6797C208.039 30.6406 207.25 31.3203 206.18 31.3203C205.109 31.3203 204.312 30.6406 204.312 29.6797C204.312 28.6953 205.109 28.0234 206.18 28.0234ZM206.18 28.6484C205.516 28.6484 205.039 29.0547 205.039 29.6797C205.039 30.2812 205.516 30.6953 206.18 30.6953C206.836 30.6953 207.312 30.2812 207.312 29.6797C207.312 29.0547 206.836 28.6484 206.18 28.6484Z" fill="#334155"/>
<path d="M237.656 31.7812V32.3672H234.797V34.6641H234.07V32.3672H231.25V31.7812H237.656ZM232.781 27.9453V28.8594H236.109V27.9453H236.852V30.9844H232.047V27.9453H232.781ZM232.781 30.3906H236.109V29.4531H232.781V30.3906ZM240.617 28.9531C240.617 29.8438 241.234 30.6562 242.297 30.9922L241.945 31.5703C241.148 31.3164 240.566 30.7891 240.258 30.125C239.953 30.8906 239.34 31.4961 238.5 31.7891L238.117 31.1953C239.211 30.8359 239.867 29.9297 239.875 28.9609V28.7656H238.336V28.1641H242.125V28.7656H240.617V28.9531ZM243.672 27.6641V29.3984H244.688V30.0078H243.672V31.8672H242.93V27.6641H243.672ZM241.414 32.0391C242.859 32.0391 243.734 32.5156 243.734 33.3359C243.734 34.1641 242.859 34.6562 241.414 34.6484C239.953 34.6562 239.062 34.1641 239.062 33.3359C239.062 32.5156 239.953 32.0391 241.414 32.0391ZM241.414 32.625C240.398 32.625 239.797 32.8828 239.805 33.3359C239.797 33.8047 240.398 34.0625 241.414 34.0625C242.422 34.0625 243.008 33.8047 243.008 33.3359C243.008 32.8828 242.422 32.625 241.414 32.625Z" fill="#334155"/>
<path d="M268.945 28.3359V29.0859C268.938 29.9688 268.938 30.8906 268.688 32.2266L267.961 32.1484C268.203 30.8828 268.203 29.9453 268.203 29.0859V28.9375H263.914V28.3359H268.945ZM269.641 33.1016V33.7188H263.258V33.1016H264.766V30.8359H265.508V33.1016H266.516V30.8359H267.242V33.1016H269.641ZM275.672 27.6641V29.3125H276.688V29.9297H275.672V31.6172H274.93V27.6641H275.672ZM273.742 28.1016C273.734 29.8984 272.523 31.1562 270.438 31.7188L270.141 31.125C271.812 30.6836 272.801 29.8047 272.938 28.7109H270.469V28.1016H273.742ZM275.672 31.9141V34.5703H271.188V31.9141H275.672ZM271.93 32.5312V33.9766H274.938V32.5312H271.93Z" fill="#334155"/>
<path d="M185.094 33.6641V37.2266H184.352V36.5547H182.578V35.9766H184.352V35.2188H182.664C182.23 36.3047 181.176 37.0195 179.625 37.3828L179.367 36.7734C181.047 36.4023 181.957 35.625 182.078 34.5938H179.734V33.9844H182.891C182.891 34.2109 182.871 34.4258 182.836 34.6328H184.352V33.6641H185.094ZM185.094 37.5234V39.2969H181.266V40H185.305V40.5938H180.531V38.7344H184.352V38.1094H180.516V37.5234H185.094ZM185.305 44.6641V51.6641H184.594V48.0703H183.758V51.3203H183.055V44.7969H183.758V47.4453H184.594V44.6641H185.305ZM181.383 46.5156C181.383 47.7734 181.859 48.9141 182.875 49.4375L182.438 50.0078C181.75 49.6367 181.289 48.9844 181.039 48.1719C180.801 49.0938 180.336 49.8281 179.625 50.25L179.164 49.6875C180.188 49.1094 180.664 47.9062 180.664 46.5156V46.0625H179.352V45.4609H182.602V46.0625H181.383V46.5156Z" fill="#334155"/>
<line x1="66.5" y1="81" x2="66.5" y2="275" stroke="black"/>
<line x1="26" y1="117.5" x2="283" y2="117.5" stroke="black"/>
<line x1="26" y1="144.5" x2="283" y2="144.5" stroke="black"/>
<line x1="26" y1="173.5" x2="283" y2="173.5" stroke="black"/>
<line x1="26" y1="211.5" x2="283" y2="211.5" stroke="black"/>
<path d="M213.889 345.305C213.898 343.459 214.396 341.926 215.295 340.627H216.037C215.373 341.594 214.758 343.566 214.758 345.305C214.758 347.043 215.373 349.025 216.037 349.992H215.295C214.396 348.684 213.898 347.15 213.889 345.305ZM223.928 340.119V346.467H223.166V340.119H223.928ZM224.201 347.961V348.605H218.322V345.822H219.084V347.961H224.201ZM219.24 340.725C220.539 340.725 221.516 341.604 221.516 342.854C221.516 344.123 220.539 344.992 219.24 344.992C217.941 344.992 216.965 344.123 216.965 342.854C216.965 341.604 217.941 340.725 219.24 340.725ZM219.24 341.398C218.361 341.398 217.707 342.004 217.717 342.854C217.707 343.723 218.361 344.318 219.24 344.318C220.1 344.318 220.764 343.723 220.764 342.854C220.764 342.004 220.1 341.398 219.24 341.398ZM227.57 345.305C227.561 347.15 227.062 348.684 226.164 349.992H225.422C226.086 349.025 226.701 347.043 226.701 345.305C226.701 343.566 226.086 341.594 225.422 340.627H226.164C227.062 341.926 227.561 343.459 227.57 345.305Z" fill="black"/>
<rect x="174.5" y="318.5" width="22" height="11" stroke="black"/>
<rect x="214.5" y="318.5" width="22" height="11" stroke="black"/>
<rect x="165.5" y="339.5" width="41" height="12" stroke="black"/>
<rect x="234.5" y="335.5" width="48" height="20" stroke="black"/>
<path d="M141.301 347.043V347.678H133.352V347.043H136.926V345.168H134.289V340.725H135.061V342.297H139.572V340.725H140.324V345.168H137.678V347.043H141.301ZM135.061 344.543H139.572V342.922H135.061V344.543ZM149.494 341.398V342.033H142.385V341.398H145.568V340.256H146.32V341.398H149.494ZM149.943 347.141V347.775H141.994V347.141H145.568V345.92C144.025 345.837 143.088 345.236 143.098 344.26C143.088 343.225 144.182 342.619 145.949 342.629C147.697 342.619 148.801 343.225 148.801 344.26C148.801 345.236 147.854 345.837 146.32 345.92V347.141H149.943ZM145.949 343.234C144.65 343.234 143.859 343.615 143.869 344.26C143.859 344.924 144.65 345.295 145.949 345.305C147.229 345.295 148.02 344.924 148.02 344.26C148.02 343.615 147.229 343.234 145.949 343.234ZM153.576 342.775C153.566 344.172 154.572 345.705 155.832 346.301L155.393 346.906C154.416 346.433 153.591 345.397 153.205 344.221C152.805 345.5 151.931 346.623 150.959 347.121L150.49 346.516C151.74 345.91 152.814 344.26 152.824 342.775V341.643H150.803V341.008H155.529V341.643H153.576V342.775ZM157.355 340.109V343.625H158.811V344.279H157.355V348.791H156.594V340.109H157.355Z" fill="black"/>
<path d="M137.664 327L137.654 326.355L140.066 323.816C140.906 322.928 141.307 322.449 141.307 321.795C141.307 321.072 140.691 320.594 139.9 320.594C139.061 320.594 138.523 321.131 138.523 321.922H137.693C137.684 320.672 138.65 319.832 139.93 319.832C141.209 319.832 142.127 320.691 142.127 321.795C142.127 322.586 141.756 323.201 140.506 324.49L138.885 326.16V326.219H142.254V327H137.664ZM145.848 327.098C144.275 327.098 143.377 325.779 143.377 323.465C143.377 321.17 144.295 319.832 145.848 319.832C147.4 319.832 148.318 321.17 148.318 323.465C148.318 325.779 147.41 327.098 145.848 327.098ZM145.848 326.316C146.863 326.316 147.459 325.291 147.459 323.465C147.459 321.639 146.863 320.594 145.848 320.594C144.832 320.594 144.227 321.639 144.227 323.465C144.227 325.291 144.822 326.316 145.848 326.316ZM149.49 327L149.48 326.355L151.893 323.816C152.732 322.928 153.133 322.449 153.133 321.795C153.133 321.072 152.518 320.594 151.727 320.594C150.887 320.594 150.35 321.131 150.35 321.922H149.52C149.51 320.672 150.477 319.832 151.756 319.832C153.035 319.832 153.953 320.691 153.953 321.795C153.953 322.586 153.582 323.201 152.332 324.49L150.711 326.16V326.219H154.08V327H149.49ZM155.027 325.555V324.832L158.211 319.93H159.295V324.783H160.281V325.555H159.295V327H158.455V325.555H155.027ZM155.975 324.783H158.455V321.043H158.367L155.975 324.725V324.783ZM168.328 319.119V325.545H167.557V322.537H165.057V321.922H167.557V320.877H165.057V320.262H167.557V319.119H168.328ZM168.562 326.961V327.605H162.732V324.998H163.504V326.961H168.562ZM162.42 319.744V323.602C163.616 323.597 164.769 323.533 166.092 323.289L166.17 323.924C164.754 324.188 163.572 324.246 162.303 324.256H161.648V319.744H162.42ZM207.049 319.119V324.236H206.277V323.758H204.52V323.25H206.277V319.119H207.049ZM199.861 322.391C201.541 322.4 203.689 322.381 205.564 322.176L205.613 322.674C204.764 322.796 203.88 322.869 203.016 322.908V324.266H202.264V322.938C201.443 322.967 200.657 322.972 199.949 322.967L199.861 322.391ZM207.049 324.549V326.346H201.98V327.127H207.332V327.693H201.229V325.809H206.287V325.105H201.189V324.549H207.049ZM202.693 319.285C203.982 319.285 204.842 319.793 204.852 320.594C204.842 321.404 203.982 321.893 202.693 321.893C201.385 321.893 200.535 321.404 200.535 320.594C200.535 319.793 201.385 319.285 202.693 319.285ZM202.693 319.822C201.814 319.822 201.248 320.125 201.258 320.594C201.248 321.053 201.814 321.365 202.693 321.365C203.562 321.365 204.129 321.053 204.129 320.594C204.129 320.125 203.562 319.822 202.693 319.822ZM241.111 319.432C242.41 319.441 243.357 320.223 243.357 321.355C243.357 322.488 242.41 323.27 241.111 323.27C239.793 323.27 238.855 322.488 238.855 321.355C238.855 320.223 239.793 319.441 241.111 319.432ZM241.111 320.076C240.242 320.076 239.598 320.604 239.607 321.355C239.598 322.117 240.242 322.645 241.111 322.645C241.971 322.645 242.615 322.117 242.615 321.355C242.615 320.604 241.971 320.076 241.111 320.076ZM245.818 319.109V323.572H245.057V319.109H245.818ZM245.818 323.992V326.082H240.945V327.059H246.131V327.674H240.193V325.506H245.057V324.607H240.174V323.992H245.818Z" fill="black"/>
<path d="M174.664 347.18V347.797H168.258V347.18H171.078V345.742H168.992V342.141H169.734V343.344H173.172V342.141H173.906V345.742H171.812V347.18H174.664ZM169.734 345.141H173.172V343.945H169.734V345.141ZM181.234 342.648V343.25H175.477V342.648H177.992V341.766H178.727V342.648H181.234ZM181.578 347.273V347.875H175.172V347.273H177.992V346.344C176.766 346.27 176.023 345.785 176.023 345.008C176.023 344.164 176.914 343.672 178.359 343.672C179.789 343.672 180.688 344.164 180.688 345.008C180.688 345.785 179.941 346.27 178.727 346.344V347.273H181.578ZM178.359 344.258C177.359 344.258 176.773 344.523 176.781 345.008C176.773 345.492 177.359 345.758 178.359 345.766C179.344 345.758 179.93 345.492 179.93 345.008C179.93 344.523 179.344 344.258 178.359 344.258ZM184.523 343.727C184.523 344.836 185.25 346.07 186.312 346.57L185.891 347.148C185.105 346.77 184.484 345.98 184.172 345.062C183.848 346.066 183.191 346.93 182.391 347.328L181.953 346.742C183.016 346.234 183.789 344.914 183.789 343.727V342.984H182.211V342.367H186.047V342.984H184.523V343.727ZM187.539 341.664V344.438H188.664V345.062H187.539V348.664H186.797V341.664H187.539ZM193.438 342.711C193.438 343.695 194.07 344.57 195.133 344.914L194.727 345.492C193.957 345.215 193.391 344.676 193.086 343.977C192.781 344.777 192.172 345.398 191.328 345.703L190.93 345.109C192.047 344.727 192.695 343.797 192.703 342.742V342.055H193.438V342.711ZM196.789 341.664V345.797H196.047V343.695H194.57V343.086H196.047V341.664H196.789ZM194.445 345.992C195.914 345.992 196.812 346.477 196.812 347.328C196.812 348.172 195.914 348.656 194.445 348.648C192.977 348.656 192.07 348.172 192.078 347.328C192.07 346.477 192.977 345.992 194.445 345.992ZM194.445 346.57C193.422 346.57 192.812 346.844 192.812 347.328C192.812 347.797 193.422 348.062 194.445 348.062C195.469 348.062 196.078 347.797 196.078 347.328C196.078 346.844 195.469 346.57 194.445 346.57ZM203.367 341.664V343.477H204.383V344.109H203.367V345.883H202.625V341.664H203.367ZM203.367 346.25V348.578H198.898V346.25H203.367ZM199.625 346.836V347.977H202.633V346.836H199.625ZM202.047 342.375V342.969H197.875V342.375H199.594V341.609H200.336V342.375H202.047ZM199.961 343.273C200.969 343.273 201.656 343.773 201.656 344.523C201.656 345.281 200.969 345.773 199.961 345.781C198.938 345.773 198.258 345.281 198.258 344.523C198.258 343.773 198.938 343.273 199.961 343.273ZM199.961 343.844C199.367 343.836 198.969 344.102 198.977 344.523C198.969 344.961 199.367 345.219 199.961 345.219C200.555 345.219 200.953 344.961 200.961 344.523C200.953 344.102 200.555 343.836 199.961 343.844Z" fill="#64748B"/>
<path d="M254.867 343.445C254.867 344.727 255.586 346 256.656 346.484L256.203 347.078C255.406 346.68 254.809 345.887 254.5 344.93C254.191 345.938 253.578 346.789 252.773 347.211L252.305 346.609C253.391 346.094 254.117 344.742 254.117 343.445V342.25H254.867V343.445ZM258.18 341.664V348.68H257.445V344.594H255.883V343.992H257.445V341.664H258.18ZM265.094 341.664V345.797H264.352V344.758H262.828V345.328H259.578V342.188H262.828V342.766H264.352V341.664H265.094ZM260.312 342.781V344.734H262.102V342.781H260.312ZM262.75 345.992C264.219 345.992 265.117 346.477 265.117 347.328C265.117 348.172 264.219 348.656 262.75 348.648C261.281 348.656 260.375 348.172 260.383 347.328C260.375 346.477 261.281 345.992 262.75 345.992ZM262.75 346.562C261.727 346.57 261.117 346.836 261.117 347.328C261.117 347.797 261.727 348.078 262.75 348.078C263.773 348.078 264.383 347.797 264.383 347.328C264.383 346.836 263.773 346.57 262.75 346.562ZM262.828 344.156H264.352V343.359H262.828V344.156Z" fill="#64748B"/>
<path d="M45.5098 95.1094V103.811H44.7383V95.1094H45.5098ZM40.8906 95.7832C42.1797 95.793 43.1074 96.9648 43.1074 98.8105C43.1074 100.656 42.1797 101.828 40.8906 101.828C39.5918 101.828 38.6738 100.656 38.6738 98.8105C38.6738 96.9648 39.5918 95.793 40.8906 95.7832ZM40.8906 96.4668C40.0215 96.4766 39.416 97.3945 39.416 98.8105C39.416 100.227 40.0215 101.145 40.8906 101.145C41.7598 101.145 42.3652 100.227 42.3652 98.8105C42.3652 97.3945 41.7598 96.4766 40.8906 96.4668ZM54.9336 99.5918V100.227H46.9844V99.5918H54.9336ZM53.9082 95.3242V97.375H48.7812V98.2441H54.0938V98.8398H48.0195V96.7988H53.1367V95.9395H47.9902V95.3242H53.9082ZM53.9082 101.018V103.674H48.0684V101.018H53.9082ZM48.8203 101.643V103.049H53.1562V101.643H48.8203Z" fill="black"/>
<path d="M45.5293 155.109V163.791H44.7578V155.109H45.5293ZM42.9609 156.057C42.9512 158.557 41.7891 160.764 38.8789 162.16L38.459 161.535C40.8076 160.422 42.0039 158.757 42.1797 156.682H38.8594V156.057H42.9609ZM53.7812 155.109V157.756H55.0898V158.4H53.7812V161.467H53.0098V155.109H53.7812ZM51.4375 155.783C51.4375 158.02 49.8359 159.68 47.3359 160.461L47.0039 159.846C49.084 159.196 50.4414 157.956 50.6074 156.428H47.3652V155.783H51.4375ZM54.1816 162.961V163.605H48.3418V160.822H49.1035V162.961H54.1816Z" fill="black"/>
<path d="M41.2559 127.48V130.41H38.6875V131.523H42.2617V132.148H34.3516V131.523H37.9258V130.41H35.377V127.48H41.2559ZM36.1289 128.096V129.795H40.4941V128.096H36.1289ZM41.2852 133.057V135.791H40.5137V133.672H35.2305V133.057H41.2852ZM46.0117 128.711C46.0117 129.844 46.8809 130.918 48.1504 131.357L47.75 131.963C46.7686 131.611 46.0117 130.884 45.6406 129.99C45.2646 130.991 44.4639 131.792 43.4336 132.168L43.0332 131.562C44.3125 131.104 45.2402 129.941 45.2402 128.721V128.34H43.2773V127.715H47.9551V128.34H46.0117V128.711ZM50.1914 132.773V135.791H49.4199V133.408H44.3516V132.773H50.1914ZM50.1914 127.109V132.314H49.4199V130.029H47.6816V129.385H49.4199V127.109H50.1914ZM54.7422 129.775C54.7422 131.25 55.8164 132.744 57.0957 133.301L56.666 133.906C55.6504 133.442 54.7715 132.441 54.3711 131.24C53.9609 132.515 53.0869 133.623 52.0957 134.121L51.6367 133.516C52.877 132.92 53.9609 131.279 53.9707 129.775V128.643H51.9199V128.008H56.8125V128.643H54.7422V129.775ZM58.7949 127.109V135.791H58.0234V127.109H58.7949Z" fill="black"/>
<path d="M32.1055 228.785C32.1055 230.182 32.8184 231.607 34 232.242L33.5605 232.818C32.6963 232.35 32.0713 231.451 31.7539 230.406C31.4414 231.52 30.8213 232.486 29.957 233.014L29.498 232.428C30.6797 231.744 31.373 230.221 31.3828 228.785V228.355H29.7324V227.721H31.3828V226.432H32.1152V227.721H33.7363V228.355H32.1055V228.785ZM36.9883 226.109V234.791H36.2559V226.109H36.9883ZM35.2305 226.324V234.342H34.5078V230.191H33.1406V229.537H34.5078V226.324H35.2305ZM45.4062 226.109V231.373H44.6348V229.391H43.1602V228.756H44.6348V226.109H45.4062ZM45.4062 231.842V234.674H39.7324V231.842H45.4062ZM40.4941 232.457V234.049H44.6543V232.457H40.4941ZM43.2871 227.027V227.652H38.2188V227.027H40.377V226.031H41.1289V227.027H43.2871ZM40.748 228.102C41.9297 228.102 42.7598 228.736 42.7695 229.645C42.7598 230.582 41.9297 231.197 40.748 231.197C39.5664 231.197 38.7363 230.582 38.7363 229.645C38.7363 228.736 39.5664 228.102 40.748 228.102ZM40.748 228.697C39.9961 228.697 39.4688 229.088 39.4688 229.645C39.4688 230.221 39.9961 230.602 40.748 230.611C41.5 230.602 42.0273 230.221 42.0273 229.645C42.0273 229.088 41.5 228.697 40.748 228.697ZM52.0469 227.047V227.672H46.8711V227.047H49.0781V226.07H49.8398V227.047H52.0469ZM49.459 228.121C50.709 228.131 51.5391 228.736 51.5488 229.693C51.5391 230.641 50.709 231.256 49.459 231.256C48.209 231.256 47.3594 230.641 47.3691 229.693C47.3594 228.736 48.209 228.131 49.459 228.121ZM49.459 228.717C48.6387 228.727 48.0918 229.107 48.1016 229.693C48.0918 230.27 48.6387 230.641 49.459 230.641C50.2695 230.641 50.8164 230.27 50.8262 229.693C50.8164 229.107 50.2695 228.727 49.459 228.717ZM53.6387 226.109V228.521H54.9473V229.166H53.6387V231.539H52.877V226.109H53.6387ZM53.6387 232.018V234.791H52.877V232.643H47.9551V232.018H53.6387ZM57.2617 231.324V232.34H61.5977V231.324H62.3691V234.674H56.5V231.324H57.2617ZM57.2617 234.059H61.5977V232.945H57.2617V234.059ZM63.4043 230.074V230.709H55.4941V230.074H63.4043ZM59.8496 226.617C59.8496 227.691 61.4316 228.648 62.9551 228.844L62.6719 229.459C61.3242 229.259 60.0059 228.57 59.459 227.594C58.9023 228.575 57.5742 229.259 56.2363 229.459L55.9434 228.844C57.4863 228.639 59.0586 227.721 59.0586 226.617V226.207H59.8496V226.617ZM41.1191 243.443C41.1191 244.977 42.1348 246.549 43.3652 247.154L42.8965 247.77C41.9395 247.267 41.1387 246.241 40.7578 245.035C40.3672 246.319 39.5469 247.413 38.5703 247.936L38.082 247.32C39.3516 246.695 40.3574 245.025 40.3672 243.443V241.861H41.1191V243.443ZM44.9277 241.109V244.635H46.3828V245.299H44.9277V249.791H44.166V241.109H44.9277ZM54.791 246.061V246.695H52.6914V249.791H51.9199V246.695H49.6934V249.791H48.9023V246.695H46.8418V246.061H54.791ZM50.7969 241.461C52.623 241.461 53.8535 242.193 53.8535 243.355C53.8535 244.508 52.623 245.24 50.7969 245.23C48.9707 245.24 47.7402 244.508 47.7402 243.355C47.7402 242.193 48.9707 241.461 50.7969 241.461ZM50.7969 242.086C49.4395 242.086 48.5215 242.584 48.5312 243.355C48.5215 244.127 49.4395 244.615 50.7969 244.615C52.1445 244.615 53.0723 244.127 53.0723 243.355C53.0723 242.584 52.1445 242.086 50.7969 242.086Z" fill="black"/>
<path d="M34.7617 182.047V182.672H29.5859V182.047H31.793V181.07H32.5547V182.047H34.7617ZM32.1738 183.121C33.4238 183.131 34.2539 183.736 34.2637 184.693C34.2539 185.641 33.4238 186.256 32.1738 186.256C30.9238 186.256 30.0742 185.641 30.084 184.693C30.0742 183.736 30.9238 183.131 32.1738 183.121ZM32.1738 183.717C31.3535 183.727 30.8066 184.107 30.8164 184.693C30.8066 185.27 31.3535 185.641 32.1738 185.641C32.9844 185.641 33.5312 185.27 33.541 184.693C33.5312 184.107 32.9844 183.727 32.1738 183.717ZM36.3535 181.109V183.521H37.6621V184.166H36.3535V186.539H35.5918V181.109H36.3535ZM36.3535 187.018V189.791H35.5918V187.643H30.6699V187.018H36.3535ZM39.9766 186.324V187.34H44.3125V186.324H45.084V189.674H39.2148V186.324H39.9766ZM39.9766 189.059H44.3125V187.945H39.9766V189.059ZM46.1191 185.074V185.709H38.209V185.074H46.1191ZM42.5645 181.617C42.5645 182.691 44.1465 183.648 45.6699 183.844L45.3867 184.459C44.0391 184.259 42.7207 183.57 42.1738 182.594C41.6172 183.575 40.2891 184.259 38.9512 184.459L38.6582 183.844C40.2012 183.639 41.7734 182.721 41.7734 181.617V181.207H42.5645V181.617ZM51.7734 182.086V182.711H46.8613V182.086H48.9707V181.041H49.7324V182.086H51.7734ZM49.3418 183.16C50.5039 183.16 51.3242 183.795 51.3242 184.762C51.3242 185.738 50.5039 186.373 49.3418 186.373C48.1699 186.373 47.3691 185.738 47.3789 184.762C47.3691 183.795 48.1699 183.16 49.3418 183.16ZM49.3418 183.736C48.5898 183.746 48.0918 184.156 48.0918 184.762C48.0918 185.377 48.5898 185.777 49.3418 185.777C50.0938 185.777 50.6016 185.377 50.6113 184.762C50.6016 184.156 50.0938 183.746 49.3418 183.736ZM54.0488 181.109V186.725H53.2773V185.523H51.7637V184.889H53.2773V183.834H51.7734V183.199H53.2773V181.109H54.0488ZM51.1875 186.812C52.9941 186.812 54.0977 187.35 54.0977 188.297C54.0977 189.225 52.9941 189.771 51.1875 189.771C49.3613 189.771 48.2676 189.225 48.2676 188.297C48.2676 187.35 49.3613 186.812 51.1875 186.812ZM51.1875 187.408C49.8691 187.408 49.0586 187.73 49.0586 188.297C49.0586 188.844 49.8691 189.176 51.1875 189.176C52.4863 189.176 53.2871 188.844 53.2871 188.297C53.2871 187.73 52.4863 187.408 51.1875 187.408ZM59.2832 182.115V182.74H56.5781V184.41H59.1562V185.025H56.5781V186.988C57.8672 186.983 58.6631 186.949 59.6152 186.773L59.6836 187.408C58.668 187.604 57.8281 187.643 56.4023 187.643H55.8457V182.115H59.2832ZM62.9355 181.109V189.791H62.1934V185.24H61.002V189.352H60.2598V181.295H61.002V184.605H62.1934V181.109H62.9355ZM37.1641 196.676V200.211H33.0918V196.676H37.1641ZM33.8438 197.301V199.605H36.4121V197.301H33.8438ZM39.791 196.109V201.1H39.0391V196.109H39.791ZM37.4375 202.291C37.4375 203.141 38.8242 203.98 40.3184 204.166L40.0547 204.762C38.7461 204.586 37.5547 203.971 37.0469 203.16C36.5195 203.985 35.2988 204.586 33.9902 204.762L33.7168 204.166C35.2109 204 36.6465 203.16 36.6465 202.291H34.0781V201.695H36.6562V200.846H37.418V201.695H40.0156V202.291H37.4375ZM51.1973 196.109V204.791H50.4453V200.299H49.1953V204.342H48.4727V196.305H49.1953V199.645H50.4453V196.109H51.1973ZM44.9863 197.174V201.861C45.8506 201.852 46.7686 201.793 47.8281 201.578L47.9258 202.262C46.7148 202.477 45.7188 202.545 44.7617 202.545H44.2246V197.174H44.9863ZM60.3379 200.406V201.041H52.4277V200.406H54.3906V199.186C53.6973 198.917 53.3066 198.473 53.3066 197.887C53.3066 196.861 54.4785 196.275 56.3828 196.275C58.2676 196.275 59.4492 196.861 59.4492 197.887C59.4492 198.468 59.0635 198.912 58.375 199.176V200.406H60.3379ZM56.3828 201.705C58.248 201.705 59.3613 202.242 59.3711 203.238C59.3613 204.225 58.248 204.771 56.3828 204.771C54.498 204.771 53.3848 204.225 53.3848 203.238C53.3848 202.242 54.498 201.705 56.3828 201.705ZM56.3828 202.291C54.9863 202.301 54.1562 202.643 54.166 203.238C54.1562 203.824 54.9863 204.176 56.3828 204.176C57.7598 204.176 58.5996 203.824 58.5996 203.238C58.5996 202.643 57.7598 202.301 56.3828 202.291ZM56.3828 196.881C54.9668 196.881 54.0879 197.262 54.0977 197.887C54.0879 198.521 54.9668 198.893 56.3828 198.893C57.7891 198.893 58.668 198.521 58.668 197.887C58.668 197.262 57.7891 196.881 56.3828 196.881ZM55.1523 200.406H57.6133V199.391C57.2471 199.454 56.8369 199.488 56.3828 199.488C55.9287 199.488 55.5186 199.454 55.1523 199.391V200.406Z" fill="black"/>
<path d="M169.547 96.0469V96.6719H164.371V96.0469H166.578V95.0703H167.34V96.0469H169.547ZM166.959 97.1211C168.209 97.1309 169.039 97.7363 169.049 98.6934C169.039 99.6406 168.209 100.256 166.959 100.256C165.709 100.256 164.859 99.6406 164.869 98.6934C164.859 97.7363 165.709 97.1309 166.959 97.1211ZM166.959 97.7168C166.139 97.7266 165.592 98.1074 165.602 98.6934C165.592 99.2695 166.139 99.6406 166.959 99.6406C167.77 99.6406 168.316 99.2695 168.326 98.6934C168.316 98.1074 167.77 97.7266 166.959 97.7168ZM171.139 95.1094V97.5215H172.447V98.166H171.139V100.539H170.377V95.1094H171.139ZM171.139 101.018V103.791H170.377V101.643H165.455V101.018H171.139ZM180.191 95.1191V101.545H179.42V98.5371H176.92V97.9219H179.42V96.877H176.92V96.2617H179.42V95.1191H180.191ZM180.426 102.961V103.605H174.596V100.998H175.367V102.961H180.426ZM174.283 95.7441V99.6016C175.479 99.5967 176.632 99.5332 177.955 99.2891L178.033 99.9238C176.617 100.188 175.436 100.246 174.166 100.256H173.512V95.7441H174.283ZM190.934 95.1191V97.7461H192.242V98.3906H190.934V101.496H190.172V95.1191H190.934ZM191.334 102.961V103.605H185.504V100.871H186.256V102.961H191.334ZM185.27 95.7441V97.209H187.799V95.7441H188.561V100.031H184.518V95.7441H185.27ZM185.27 99.4062H187.799V97.8145H185.27V99.4062Z" fill="black"/>
<line x1="146.5" y1="81" x2="146.5" y2="118" stroke="black"/>
<line x1="146.5" y1="81" x2="146.5" y2="118" stroke="black"/>
<line x1="204.5" y1="81" x2="204.5" y2="118" stroke="black"/>
<path d="M96.2354 292.736C97.1582 292.736 97.8281 293.249 97.8281 294.008C97.8281 294.76 97.1582 295.279 96.2354 295.272C95.3125 295.279 94.6562 294.76 94.6562 294.008C94.6562 293.249 95.3125 292.736 96.2354 292.736ZM96.2354 293.263C95.6816 293.263 95.2783 293.557 95.2852 294.008C95.2783 294.452 95.6816 294.746 96.2354 294.739C96.8027 294.746 97.2061 294.452 97.2061 294.008C97.2061 293.557 96.8027 293.263 96.2354 293.263ZM99.3184 292.463V298.581H98.6758V292.463H99.3184ZM94.2188 295.751C95.3467 295.751 96.9121 295.724 98.252 295.525L98.2998 296.011C97.7427 296.117 97.1616 296.182 96.5977 296.223V298.39H95.9482V296.257C95.3535 296.284 94.793 296.288 94.3076 296.291L94.2188 295.751ZM102.114 292.846C103.058 292.846 103.762 293.44 103.762 294.302C103.762 295.061 103.215 295.611 102.442 295.73V296.701C102.986 296.677 103.529 296.636 104.035 296.571L104.083 297.057C102.791 297.282 101.362 297.289 100.303 297.282L100.2 296.749C100.675 296.746 101.222 296.742 101.793 296.729V295.73C101 295.618 100.46 295.064 100.467 294.302C100.46 293.44 101.15 292.846 102.114 292.846ZM102.114 293.393C101.526 293.399 101.096 293.755 101.096 294.302C101.096 294.849 101.526 295.211 102.114 295.204C102.695 295.211 103.119 294.849 103.126 294.302C103.119 293.755 102.695 293.399 102.114 293.393ZM105.054 292.456V294.944H105.997V295.491H105.054V298.581H104.404V292.456H105.054ZM112.847 292.456V293.837H113.735V294.363H112.847V295.71H112.197V292.456H112.847ZM111.192 292.88C111.192 294.445 110.133 295.437 108.314 295.826L108.041 295.3C109.586 294.989 110.386 294.268 110.475 293.399H108.314V292.88H111.192ZM112.874 295.97V296.462H109.565V296.988H112.806V297.46H109.565V298.014H113.011V298.506H108.916V295.97H112.874ZM119.669 295.655V296.175H114.084V295.655H119.669ZM119.04 297.925V298.451H114.788V296.674H115.444V297.925H119.04ZM116.873 292.661C118.199 292.654 119.061 293.119 119.061 293.885C119.061 294.657 118.199 295.122 116.873 295.129C115.54 295.122 114.686 294.657 114.686 293.885C114.686 293.119 115.54 292.654 116.873 292.661ZM116.873 293.181C115.937 293.181 115.349 293.447 115.355 293.885C115.349 294.336 115.937 294.596 116.873 294.596C117.81 294.596 118.391 294.336 118.391 293.885C118.391 293.447 117.81 293.181 116.873 293.181ZM127.086 292.456V298.581H126.464V295.443H125.678V298.267H125.069V292.579H125.678V294.91H126.464V292.456H127.086ZM122.779 293.181V296.448C123.347 296.445 123.965 296.4 124.659 296.264L124.728 296.831C123.887 296.981 123.183 297.022 122.526 297.022H122.13V293.181H122.779ZM133.478 295.443V295.97H127.893V295.443H129.232V294.616C128.761 294.425 128.494 294.117 128.494 293.714C128.494 292.989 129.335 292.565 130.682 292.565C132.021 292.565 132.869 292.989 132.869 293.714C132.869 294.117 132.599 294.428 132.124 294.616V295.443H133.478ZM130.682 296.387C132.001 296.387 132.794 296.776 132.794 297.474C132.794 298.185 132.001 298.567 130.682 298.567C129.349 298.567 128.556 298.185 128.556 297.474C128.556 296.776 129.349 296.387 130.682 296.387ZM130.682 296.886C129.745 296.886 129.212 297.098 129.212 297.474C129.212 297.856 129.745 298.075 130.682 298.068C131.604 298.075 132.145 297.856 132.145 297.474C132.145 297.098 131.604 296.886 130.682 296.886ZM130.682 293.064C129.731 293.064 129.157 293.304 129.164 293.714C129.157 294.124 129.731 294.356 130.682 294.356C131.632 294.356 132.199 294.124 132.199 293.714C132.199 293.304 131.632 293.064 130.682 293.064ZM129.889 295.443H131.481V294.787C131.242 294.828 130.972 294.849 130.682 294.849C130.395 294.849 130.128 294.828 129.889 294.794V295.443ZM136.731 292.825C138.017 292.825 138.994 293.502 138.994 294.534C138.994 295.566 138.017 296.25 136.731 296.243C135.446 296.25 134.476 295.566 134.476 294.534C134.476 293.502 135.446 292.825 136.731 292.825ZM136.731 293.352C135.795 293.345 135.091 293.823 135.098 294.534C135.091 295.252 135.795 295.71 136.731 295.71C137.668 295.71 138.365 295.252 138.365 294.534C138.365 293.823 137.668 293.345 136.731 293.352ZM139.548 297.248V297.788H133.942V297.248H139.548ZM145.598 297.303V297.85H139.992V297.303H142.46V296.229H140.676V294.281H144.271V293.42H140.662V292.887H144.914V294.801H141.318V295.696H145.058V296.229H143.103V297.303H145.598ZM152.857 292.463V297.132H152.208V295.867H151.224V295.348H152.208V294.589H151.224V294.056H152.208V292.463H152.857ZM151.203 293.174V293.7H147.758V293.174H149.193V292.456H149.836V293.174H151.203ZM149.508 293.994C150.335 293.994 150.916 294.473 150.923 295.17C150.916 295.874 150.335 296.353 149.508 296.353C148.681 296.353 148.1 295.874 148.1 295.17C148.1 294.473 148.681 293.994 149.508 293.994ZM149.508 294.5C149.029 294.507 148.708 294.767 148.708 295.17C148.708 295.587 149.029 295.847 149.508 295.847C149.979 295.847 150.308 295.587 150.314 295.17C150.308 294.767 149.979 294.507 149.508 294.5ZM152.994 297.925V298.451H148.858V296.722H149.515V297.925H152.994ZM155.94 293.584C155.94 294.363 156.48 295.074 157.41 295.368L157.103 295.874C156.405 295.652 155.896 295.19 155.626 294.609C155.359 295.279 154.823 295.809 154.088 296.065L153.753 295.546C154.71 295.231 155.284 294.438 155.291 293.591V293.42H153.944V292.894H157.26V293.42H155.94V293.584ZM158.613 292.456V293.974H159.502V294.507H158.613V296.134H157.964V292.456H158.613ZM156.638 296.284C157.902 296.284 158.668 296.701 158.668 297.419C158.668 298.144 157.902 298.574 156.638 298.567C155.359 298.574 154.58 298.144 154.58 297.419C154.58 296.701 155.359 296.284 156.638 296.284ZM156.638 296.797C155.749 296.797 155.223 297.022 155.229 297.419C155.223 297.829 155.749 298.055 156.638 298.055C157.52 298.055 158.032 297.829 158.032 297.419C158.032 297.022 157.52 296.797 156.638 296.797ZM161.683 294.336C161.683 295.3 162.127 296.284 162.975 296.735L162.612 297.214C162.021 296.899 161.607 296.312 161.389 295.614C161.167 296.363 160.756 297.005 160.165 297.357L159.782 296.865C160.63 296.373 161.067 295.327 161.074 294.336V294.09H159.967V293.557H161.074V292.675H161.683V293.557H162.77V294.09H161.683V294.336ZM165.107 292.456V298.581H164.485V292.456H165.107ZM163.863 292.586V298.273H163.248V295.382H162.366V294.842H163.248V292.586H163.863ZM171.007 292.456V296.168H170.357V294.835H169.4V294.295H170.357V292.456H171.007ZM171.007 296.469V298.506H166.967V296.469H171.007ZM167.609 296.981V297.979H170.371V296.981H167.609ZM169.496 293.064V293.584H165.907V293.064H167.384V292.401H168.026V293.064H169.496ZM167.705 293.864C168.546 293.864 169.141 294.315 169.141 294.958C169.141 295.621 168.546 296.052 167.705 296.059C166.864 296.052 166.263 295.621 166.263 294.958C166.263 294.315 166.864 293.864 167.705 293.864ZM167.705 294.363C167.213 294.356 166.885 294.596 166.885 294.958C166.885 295.334 167.213 295.566 167.705 295.566C168.19 295.566 168.519 295.334 168.519 294.958C168.519 294.596 168.19 294.356 167.705 294.363ZM175.607 293.078V293.598H171.957V293.078H173.461V292.429H174.11V293.078H175.607ZM173.782 293.871C174.664 293.878 175.266 294.315 175.266 294.985C175.266 295.655 174.664 296.1 173.782 296.1C172.894 296.1 172.292 295.655 172.292 294.985C172.292 294.315 172.894 293.878 173.782 293.871ZM173.782 294.37C173.263 294.37 172.914 294.609 172.921 294.985C172.914 295.368 173.263 295.594 173.782 295.594C174.302 295.594 174.65 295.368 174.657 294.985C174.65 294.609 174.302 294.37 173.782 294.37ZM176.763 292.456V294.117H177.651V294.657H176.763V296.284H176.113V292.456H176.763ZM176.763 296.599V298.581H176.113V297.125H172.716V296.599H176.763ZM179.333 296.127V296.776H182.211V296.127H182.86V298.506H178.69V296.127H179.333ZM179.333 297.986H182.211V297.282H179.333V297.986ZM183.585 295.204V295.744H178V295.204H183.585ZM181.124 292.784C181.124 293.488 182.102 294.172 183.277 294.315L183.045 294.828C182.05 294.688 181.186 294.22 180.796 293.57C180.396 294.223 179.528 294.688 178.547 294.828L178.301 294.315C179.49 294.165 180.461 293.509 180.461 292.784V292.524H181.124V292.784ZM186.839 292.559C188.22 292.559 189.026 292.928 189.026 293.611C189.026 294.295 188.22 294.671 186.839 294.671C185.458 294.671 184.651 294.295 184.651 293.611C184.651 292.928 185.458 292.559 186.839 292.559ZM186.839 293.037C185.861 293.037 185.321 293.249 185.328 293.611C185.321 293.987 185.861 294.186 186.839 294.186C187.816 294.186 188.356 293.987 188.356 293.611C188.356 293.249 187.816 293.037 186.839 293.037ZM189.635 295.047V295.566H184.05V295.047H189.635ZM188.931 296.038V297.474H185.362V298.021H189.102V298.52H184.727V297.002H188.288V296.523H184.72V296.038H188.931ZM196.888 292.463V296.947H196.238V292.463H196.888ZM197.072 297.925V298.451H192.882V296.523H193.538V297.925H197.072ZM194.037 293.406C194.03 294.302 194.604 295.122 195.548 295.45L195.213 295.97C194.505 295.707 193.982 295.187 193.709 294.521C193.439 295.231 192.909 295.802 192.191 296.079L191.843 295.566C192.807 295.211 193.374 294.329 193.374 293.406V292.798H194.037V293.406ZM200.005 293.762C200.005 294.479 200.6 295.156 201.529 295.416L201.222 295.922C200.514 295.72 199.978 295.283 199.697 294.719C199.431 295.351 198.897 295.85 198.166 296.079L197.858 295.58C198.788 295.279 199.362 294.548 199.362 293.762V293.687H198.029V293.167H199.362V292.429H200.012V293.167H201.338V293.687H200.005V293.762ZM202.965 292.456V296.168H202.315V294.705H201.146V294.172H202.315V292.456H202.965ZM200.914 296.305C202.192 296.305 202.985 296.715 202.985 297.433C202.985 298.157 202.192 298.574 200.914 298.567C199.629 298.574 198.836 298.157 198.843 297.433C198.836 296.715 199.629 296.305 200.914 296.305ZM200.914 296.811C200.019 296.811 199.485 297.036 199.485 297.433C199.485 297.829 200.019 298.068 200.914 298.068C201.816 298.068 202.343 297.829 202.343 297.433C202.343 297.036 201.816 296.811 200.914 296.811ZM208.721 292.456V293.994H209.609V294.541H208.721V296.024H208.071V292.456H208.721ZM205.446 296.277V296.872H208.071V296.277H208.721V298.506H204.804V296.277H205.446ZM205.446 297.986H208.071V297.378H205.446V297.986ZM207.565 293.058V293.577H203.915V293.058H205.419V292.401H206.068V293.058H207.565ZM205.74 293.83C206.622 293.83 207.224 294.247 207.224 294.903C207.224 295.553 206.622 295.983 205.74 295.977C204.845 295.983 204.25 295.553 204.25 294.903C204.25 294.247 204.845 293.83 205.74 293.83ZM205.74 294.315C205.221 294.309 204.872 294.548 204.879 294.903C204.872 295.266 205.221 295.498 205.74 295.498C206.26 295.498 206.608 295.266 206.615 294.903C206.608 294.548 206.26 294.309 205.74 294.315ZM215.044 292.456V298.581H214.395V292.456H215.044ZM210.977 293.051V296.462C211.869 296.455 212.809 296.383 213.793 296.182L213.882 296.729C212.795 296.947 211.811 297.022 210.847 297.022H210.334V293.051H210.977ZM220.779 292.456V294.828H221.764V295.361H220.779V298.595H220.13V292.456H220.779ZM219.132 293.044V293.57H216.917V296.53C217.946 296.527 218.718 296.482 219.59 296.325L219.672 296.872C218.715 297.043 217.901 297.077 216.76 297.07H216.268V293.044H219.132ZM222.755 298.048C222.488 298.048 222.263 297.829 222.27 297.562C222.263 297.296 222.488 297.077 222.755 297.077C223.015 297.077 223.24 297.296 223.24 297.562C223.24 297.829 223.015 298.048 222.755 298.048Z" fill="#64748B"/>
</svg>
