<svg width="320" height="446" viewBox="0 0 320 446" fill="none" xmlns="http://www.w3.org/2000/svg">
<rect width="320" height="446" fill="white"/>
<path d="M41.9934 38.4689V49.9358H39.892V47.0897H37.8568V45.4185H39.892V43.9128H37.8568V42.2084H39.892V38.4689H41.9934ZM29.3352 41.712V40.0408H32.5784V38.4358H34.6798V40.0408H37.7078V41.712H29.3352ZM30.0798 45.2034C30.0633 43.466 31.5607 42.2415 33.6043 42.2415C35.6726 42.2415 37.1618 43.466 37.1784 45.2034C37.1618 46.9408 35.6726 48.1487 33.6043 48.1487C31.5607 48.1487 30.0633 46.9408 30.0798 45.2034ZM31.9661 53.2451V48.9595H34.1007V51.5573H42.3078V53.2451H31.9661ZM32.0489 45.2034C32.0406 46.0721 32.6859 46.5437 33.6043 46.5437C34.5143 46.5437 35.1845 46.0721 35.1927 45.2034C35.1845 44.3595 34.5143 43.8879 33.6043 43.8797C32.6859 43.8879 32.0406 44.3595 32.0489 45.2034ZM53.3478 39.4617V41.1495H50.3528C50.3611 42.9034 51.4284 44.5994 53.8276 45.3027L52.8183 46.9574C51.1554 46.4527 49.9971 45.4351 49.3352 44.1527C48.6651 45.6667 47.4406 46.8746 45.637 47.4703L44.5615 45.7991C47.06 45.0131 48.1935 43.0606 48.2183 41.1495H45.1406V39.4617H53.3478ZM46.6464 50.5811C46.6381 48.7444 48.6237 47.6771 51.8089 47.6854C54.9445 47.6771 56.8805 48.7444 56.8888 50.5811C56.8805 52.426 54.9445 53.5181 51.8089 53.5098C48.6237 53.5181 46.6381 52.426 46.6464 50.5811ZM48.7644 50.5811C48.7478 51.4415 49.8316 51.8717 51.8089 51.8717C53.7615 51.8717 54.8039 51.4415 54.8039 50.5811C54.8039 49.7372 53.7615 49.3153 51.8089 49.3235C49.8316 49.3153 48.7478 49.7372 48.7644 50.5811ZM54.6219 47.3876V38.4523H56.7399V41.9437H58.7751V43.6646H56.7399V47.3876H54.6219ZM64.9834 43.0358C64.9834 45.3192 65.8025 47.6109 67.9453 48.7609L66.787 50.2998C65.4302 49.6048 64.5284 48.3886 63.9989 46.9243C63.4777 48.521 62.5759 49.8696 61.2108 50.6638L60.0029 49.0753C62.1788 47.8178 62.9813 45.3606 62.9978 43.0358V42.6883H60.5655V41.0005H62.9978V38.9653H64.9669V41.0005H67.3496V42.6883H64.9834V43.0358ZM66.4726 45.8818V44.161H68.2431V38.7005H70.2287V52.8149H68.2431V45.8818H66.4726ZM71.3043 53.5098V38.4523H73.3064V53.5098H71.3043ZM88.4665 38.4523V47.553H86.3651V44.5912H84.4126V42.8703H86.3651V38.4523H88.4665ZM75.8083 41.4473V39.7595H79.2169V38.32H81.3018V39.7595H84.6773V41.4473H75.8083ZM76.6356 44.6408C76.6356 43.0689 78.1496 41.9437 80.2594 41.9437C82.3773 41.9437 83.8665 43.0689 83.8665 44.6408C83.8665 46.2872 82.3691 47.3627 80.2594 47.371C78.1496 47.3627 76.6356 46.2872 76.6356 44.6408ZM78.3399 53.3444V48.1984H88.4665V53.3444H78.3399ZM78.6709 44.6408C78.6543 45.402 79.2748 45.8074 80.2594 45.8156C81.2191 45.8074 81.8478 45.402 81.8478 44.6408C81.8478 43.9293 81.2191 43.5239 80.2594 43.5322C79.2748 43.5239 78.6543 43.9293 78.6709 44.6408ZM80.4579 51.6566H86.3982V49.853H80.4579V51.6566ZM100.201 39.7926V41.4638H91.2662V39.7926H94.6914V38.3696H96.7928V39.7926H100.201ZM91.9943 44.7235C91.9943 43.0689 93.5497 41.952 95.7338 41.9437C97.9263 41.952 99.4403 43.0689 99.4403 44.7235C99.4403 46.3782 97.9263 47.4951 95.7338 47.5034C93.5497 47.4951 91.9943 46.3782 91.9943 44.7235ZM93.0698 50.2171V48.5293H103.213V53.5098H101.095V50.2171H93.0698ZM94.0626 44.7235C94.0543 45.493 94.7245 45.8901 95.7338 45.8818C96.7515 45.8901 97.4381 45.493 97.4381 44.7235C97.4381 43.9459 96.7515 43.5322 95.7338 43.5322C94.7245 43.5322 94.0543 43.9459 94.0626 44.7235ZM101.095 47.9005V38.4523H103.213V42.3574H105.248V44.0782H103.213V47.9005H101.095ZM110.447 47.4868V48.7609H116.652V47.4868H118.754V53.3444H108.362V47.4868H110.447ZM106.757 46.7257V45.0214H120.491V46.7257H106.757ZM107.436 42.7048C110.795 42.2995 112.532 40.6613 112.549 39.1142V38.6013H114.716V39.1142C114.716 40.62 116.445 42.3243 119.813 42.7048L119.068 44.3595C116.478 44.0286 114.592 42.953 113.624 41.4969C112.648 42.953 110.762 44.0286 108.197 44.3595L107.436 42.7048ZM110.447 51.6897H116.652V50.366H110.447V51.6897ZM134.857 38.4689V49.4559H132.739V38.4689H134.857ZM122.199 45.7329C124.722 44.889 125.822 42.7959 125.822 40.7523V39.2962H128.023V40.7523C128.007 42.7462 129.074 44.6905 131.548 45.4847L130.472 47.1394C128.768 46.5768 127.601 45.4516 126.931 44.0203C126.253 45.5592 125.053 46.8002 123.291 47.4041L122.199 45.7329ZM124.763 53.2451V48.3969H126.898V51.5573H135.254V53.2451H124.763ZM146.327 40.0243V41.679H143.282C143.307 43.2261 144.432 44.798 146.857 45.4185L145.88 47.0401C144.159 46.6099 142.96 45.6584 142.273 44.434C141.619 45.8239 140.412 46.9243 138.633 47.4372L137.64 45.7991C140.048 45.1041 141.164 43.3833 141.181 41.679H138.153V40.0243H141.181V38.3862H143.316V40.0243H146.327ZM140.105 50.6307C140.105 48.8271 142.091 47.8095 145.285 47.8012C148.495 47.8095 150.472 48.8271 150.48 50.6307C150.472 52.4591 148.495 53.5181 145.285 53.5098C142.091 53.5181 140.105 52.4591 140.105 50.6307ZM142.207 50.6307C142.207 51.4581 143.291 51.9048 145.285 51.9048C147.32 51.9048 148.371 51.4581 148.379 50.6307C148.371 49.8282 147.32 49.4228 145.285 49.4228C143.291 49.4228 142.207 49.8282 142.207 50.6307ZM145.88 44.1775V42.4897H148.329V38.4523H150.431V47.553H148.329V44.1775H145.88ZM158.922 41.861C158.931 44.6905 160.072 47.4455 162.579 48.5293L161.289 50.2171C159.617 49.4063 158.492 47.9005 157.863 46.039C157.218 48.0163 156.06 49.6379 154.339 50.4818L153.015 48.7609C155.596 47.5944 156.771 44.6905 156.788 41.861V39.6106H158.922V41.861ZM160.891 44.889V43.1847H163.853V38.4523H165.938V53.5429H163.853V44.889H160.891Z" fill="black"/>
<path d="M58.1549 399.679C58.1549 402.508 59.2966 405.255 61.8117 406.347L60.521 408.035C58.8498 407.216 57.7329 405.718 57.1124 403.865C56.4506 405.834 55.2923 407.447 53.5714 408.299L52.2477 406.579C54.829 405.42 56.0038 402.508 56.0203 399.679V397.428H58.1549V399.679ZM65.1707 396.27V411.361H63.0858V402.707H60.1239V401.002H63.0858V396.27H65.1707ZM75.6679 396.402C79.1262 396.402 81.1283 397.312 81.1449 398.984C81.1283 400.638 79.1262 401.548 75.6679 401.548C72.1931 401.548 70.1744 400.638 70.1744 398.984C70.1744 397.312 72.1931 396.402 75.6679 396.402ZM75.6679 397.958C73.4506 397.958 72.3751 398.289 72.3916 398.984C72.3751 399.712 73.4506 400.01 75.6679 400.01C77.9017 400.01 78.9607 399.712 78.9607 398.984C78.9607 398.289 77.9017 397.958 75.6679 397.958ZM82.5348 402.227V403.881H76.7103V404.891H80.8636V408.73H72.4744V409.64H81.2607V411.228H70.406V407.257H78.7787V406.43H70.3895V404.891H74.5924V403.881H68.801V402.227H82.5348ZM104.638 398.14V399.861H102.685V401.416H104.638V403.153H102.685V405.073H100.567V396.27H102.685V398.14H104.638ZM94.9746 397.097C97.3077 397.081 99.0782 398.603 99.0782 400.738C99.0782 402.872 97.3077 404.378 94.9746 404.378C92.625 404.378 90.8379 402.872 90.8379 400.738C90.8379 398.603 92.625 397.081 94.9746 397.097ZM94.9746 398.868C93.7832 398.851 92.9063 399.579 92.9228 400.738C92.9063 401.912 93.7832 402.607 94.9746 402.607C96.1329 402.607 97.0098 401.912 97.0264 400.738C97.0098 399.579 96.1329 398.851 94.9746 398.868ZM97.7544 405.371C100.849 405.371 102.834 406.496 102.834 408.366C102.834 410.219 100.849 411.327 97.7544 411.327C94.594 411.327 92.5919 410.219 92.5919 408.366C92.5919 406.496 94.594 405.371 97.7544 405.371ZM97.7544 407.042C95.7688 407.042 94.6933 407.489 94.7098 408.366C94.6933 409.243 95.7688 409.656 97.7544 409.656C99.7069 409.656 100.749 409.243 100.749 408.366C100.749 407.489 99.7069 407.042 97.7544 407.042ZM119.834 396.287V407.654H117.716V406.463H114.837V405.023H117.716V396.287H119.834ZM120.165 409.375V411.063H108.947V406.562H111.048V404.56C109.7 404.618 108.417 404.626 107.275 404.626L107.027 402.955C109.791 402.938 113.514 402.905 116.69 402.508L116.806 404.014C115.615 404.212 114.382 404.353 113.166 404.444V407.307H111.048V409.375H120.165ZM111.925 396.799C114.109 396.783 115.681 397.892 115.681 399.497C115.681 401.102 114.109 402.144 111.925 402.144C109.691 402.144 108.136 401.102 108.136 399.497C108.136 397.892 109.675 396.783 111.925 396.799ZM111.925 398.338C110.849 398.338 110.121 398.752 110.138 399.497C110.121 400.225 110.849 400.622 111.925 400.622C112.934 400.622 113.662 400.225 113.679 399.497C113.662 398.752 112.934 398.338 111.925 398.338ZM135.676 405.884V407.538H133.657V409.408H135.842V411.096H124.755V409.408H126.94V407.538H124.888V405.884H129.223V404.643H123.415V402.955H137.149V404.643H131.324V405.884H135.676ZM131.374 396.915C131.374 398.471 133.111 400.192 136.47 400.572L135.726 402.21C133.128 401.879 131.25 400.804 130.282 399.331C129.314 400.804 127.428 401.879 124.855 402.21L124.093 400.572C127.452 400.175 129.19 398.504 129.206 396.915V396.419H131.374V396.915ZM129.024 409.408H131.589V407.538H129.024V409.408ZM153.537 407.886V409.607H139.753V407.886H145.578V404.94H147.679V407.886H153.537ZM152.329 398.338V400.026H147.729C147.903 401.697 149.607 403.393 153.04 403.815L152.279 405.453C149.582 405.114 147.638 403.997 146.637 402.442C145.619 403.997 143.691 405.114 140.994 405.453L140.217 403.815C143.65 403.393 145.354 401.697 145.545 400.026H140.945V398.338H145.578V396.452H147.679V398.338H152.329ZM169.858 403.153V404.874H156.091V403.153H169.858ZM168.286 400.423V402.094H157.763V396.667H168.204V398.371H159.864V400.423H168.286ZM162.942 405.784C166.202 405.784 168.171 406.777 168.187 408.548C168.171 410.335 166.202 411.327 162.942 411.327C159.649 411.327 157.663 410.335 157.663 408.548C157.663 406.777 159.649 405.784 162.942 405.784ZM162.942 407.389C160.857 407.389 159.798 407.786 159.815 408.548C159.798 409.342 160.857 409.722 162.942 409.722C164.977 409.722 166.053 409.342 166.069 408.548C166.053 407.786 164.977 407.389 162.942 407.389ZM181.365 397.61V399.281H172.43V397.61H175.855V396.187H177.956V397.61H181.365ZM176.897 399.761C179.081 399.761 180.604 400.887 180.604 402.541C180.604 404.196 179.081 405.321 176.897 405.321C174.713 405.321 173.158 404.196 173.158 402.541C173.158 400.887 174.713 399.761 176.897 399.761ZM176.897 401.35C175.888 401.35 175.21 401.763 175.226 402.541C175.21 403.302 175.888 403.699 176.897 403.699C177.907 403.699 178.602 403.302 178.602 402.541C178.602 401.763 177.907 401.35 176.897 401.35ZM184.376 396.27V400.175H186.412V401.896H184.376V405.718H182.258V396.27H184.376ZM184.376 406.347V411.327H182.258V408.035H174.233V406.347H184.376ZM201.261 397.577V399.05C201.244 400.887 201.244 402.955 200.698 405.983L198.63 405.801C199.126 403.046 199.143 400.994 199.143 399.248H190.125V397.577H201.261ZM202.502 407.77V409.491H188.768V407.77H191.697V403.038H193.798V407.77H195.453V403.038H197.538V407.77H202.502ZM213.661 397.279V398.967H210.666C210.682 400.721 211.733 402.417 214.141 403.12L213.131 404.775C211.468 404.27 210.318 403.261 209.656 401.962C208.986 403.484 207.762 404.692 205.95 405.288L204.874 403.617C207.373 402.831 208.498 400.878 208.531 398.967H205.454V397.279H213.661ZM217.053 396.27V399.761H219.088V401.482H217.053V405.205H214.935V396.27H217.053ZM212.122 405.503C215.249 405.486 217.202 406.562 217.202 408.399C217.202 410.235 215.249 411.327 212.122 411.327C208.928 411.327 206.959 410.235 206.959 408.399C206.959 406.562 208.928 405.486 212.122 405.503ZM212.122 407.141C210.136 407.141 209.061 407.555 209.077 408.399C209.061 409.259 210.136 409.689 212.122 409.689C214.074 409.689 215.117 409.259 215.117 408.399C215.117 407.555 214.074 407.141 212.122 407.141ZM239.95 396.27V411.327H237.816V396.27H239.95ZM226.944 403.17C228.781 403.178 230.874 403.162 232.984 403.054C233.315 401.35 233.389 400.018 233.414 399H228.185V397.312H235.516V398.156C235.516 399.207 235.516 400.771 235.152 402.922C235.756 402.889 236.36 402.839 236.955 402.773L237.104 404.345C235.714 404.535 234.299 404.659 232.901 404.742V410.5H230.783V404.841C229.534 404.883 228.334 404.891 227.209 404.891L226.944 403.17ZM255.263 396.27V402.161H257.48V403.898H255.263V411.327H253.178V396.27H255.263ZM252.152 398.52V400.208H243.299V398.52H246.708V396.502H248.826V398.52H252.152ZM247.767 401.052C249.968 401.052 251.606 402.541 251.606 404.643C251.606 406.744 249.968 408.233 247.767 408.233C245.55 408.233 243.911 406.744 243.911 404.643C243.911 402.541 245.55 401.052 247.767 401.052ZM247.767 402.756C246.708 402.773 245.93 403.484 245.93 404.643C245.93 405.817 246.708 406.512 247.767 406.496C248.826 406.512 249.587 405.817 249.587 404.643C249.587 403.484 248.826 402.773 247.767 402.756Z" fill="black"/>
<rect x="181.802" y="25.4594" width="14.8258" height="38.0725" stroke="black" stroke-width="1.05899"/>
<line x1="197.157" y1="25.4581" x2="296.702" y2="25.4581" stroke="black" stroke-width="1.05899"/>
<line x1="197.157" y1="63.532" x2="296.702" y2="63.532" stroke="black" stroke-width="1.05899"/>
<line x1="296.172" y1="24.9299" x2="296.172" y2="64.0614" stroke="black" stroke-width="1.05899"/>
<line x1="197.157" y1="39.2071" x2="296.702" y2="39.2071" stroke="black" stroke-width="1.05899"/>
<line x1="228.398" y1="24.9299" x2="228.398" y2="64.0614" stroke="black" stroke-width="1.05899"/>
<line x1="264.404" y1="24.9299" x2="264.404" y2="64.0614" stroke="black" stroke-width="1.05899"/>
<rect x="23.5295" y="85.5295" width="271.941" height="203.941" stroke="black" stroke-width="1.05899"/>
<path d="M210.668 29.3355V31.0977H211.743V31.7513H210.668V33.5218H209.882V29.3355H210.668ZM205.174 33.1412V29.8236H208.467V30.4607H205.952V32.5042C207.396 32.5042 208.206 32.4463 209.137 32.2642L209.228 32.893C208.227 33.104 207.35 33.1412 205.762 33.1412H205.174ZM205.935 36.6491V33.8858H210.668V36.6491H205.935ZM206.705 36.0203H209.89V34.5146H206.705V36.0203ZM218.312 29.3438V33.5632H217.526V29.3438H218.312ZM212.314 31.47C212.318 30.4234 213.154 29.7119 214.292 29.7161C215.425 29.7119 216.261 30.4234 216.261 31.47C216.261 32.4876 215.425 33.2074 214.292 33.2074C213.154 33.2074 212.318 32.4876 212.314 31.47ZM213.084 31.47C213.079 32.1071 213.588 32.5455 214.292 32.5455C214.986 32.5455 215.491 32.1071 215.491 31.47C215.491 30.8123 214.986 30.3738 214.292 30.3779C213.588 30.3738 213.079 30.8123 213.084 31.47ZM213.439 36.6574V33.9355H218.312V36.6574H213.439ZM214.217 36.0203H217.543V34.5642H214.217V36.0203Z" fill="#334155"/>
<path d="M247.624 33.6955V34.316H244.596V36.7484H243.827V34.316H240.84V33.6955H247.624ZM241.684 32.8517V29.6333H242.462V30.6013H245.986V29.6333H246.772V32.8517H241.684ZM242.462 32.2229H245.986V31.2301H242.462V32.2229ZM250.76 30.7006C250.756 31.6437 251.413 32.5042 252.538 32.8599L252.166 33.4722C251.322 33.2033 250.706 32.6448 250.379 31.9416C250.056 32.7524 249.407 33.3936 248.518 33.7038L248.112 33.075C249.27 32.6945 249.97 31.7389 249.974 30.7089V30.502H248.344V29.865H252.356V30.502H250.76V30.7006ZM249.113 35.3419C249.113 34.4732 250.061 33.9644 251.604 33.9686C253.13 33.9644 254.061 34.4732 254.061 35.3419C254.061 36.223 253.13 36.736 251.604 36.7319C250.061 36.736 249.113 36.223 249.113 35.3419ZM249.899 35.3419C249.895 35.8383 250.532 36.1155 251.604 36.1114C252.667 36.1155 253.295 35.8383 253.291 35.3419C253.295 34.8579 252.667 34.5849 251.604 34.5891C250.532 34.5849 249.895 34.8579 249.899 35.3419ZM253.209 33.7865V29.3355H253.995V31.1722H255.07V31.8175H253.995V33.7865H253.209Z" fill="#334155"/>
<path d="M280.76 30.047V30.8412C280.752 31.772 280.752 32.7482 280.487 34.1671L279.717 34.0844C279.978 32.7441 279.978 31.7513 279.974 30.8412V30.684H275.432V30.047H280.76ZM274.737 35.7473V35.0937H276.334V32.6945H277.12V35.0937H278.187V32.6945H278.956V35.0937H281.496V35.7473H274.737ZM287.883 29.3355V31.0812H288.959V31.7347H287.883V33.5218H287.097V29.3355H287.883ZM282.026 33.0006C283.8 32.5331 284.843 31.6024 284.988 30.4441H282.373V29.7988H285.84C285.836 31.6975 284.549 33.0337 282.34 33.6293L282.026 33.0006ZM283.134 36.6491V33.8362H287.883V36.6491H283.134ZM283.92 36.0203H287.106V34.4898H283.92V36.0203Z" fill="#334155"/>
<path d="M191.961 35.6812V39.4538H191.175V38.7423H189.297V38.1301H191.175V37.3276H189.388C188.929 38.4776 187.808 39.2387 186.17 39.6193L185.897 38.974C187.675 38.581 188.635 37.7537 188.763 36.6657H186.286V36.0204H189.628C189.628 36.2603 189.607 36.4878 189.566 36.7071H191.175V35.6812H191.961ZM187.113 40.3887V39.7682H191.961V41.6463H187.907V42.3909H192.184V43.0196H187.129V41.0506H191.175V40.3887H187.113ZM192.184 47.6812V55.0941H191.432V51.2884H190.546V54.7301H189.802V47.8218H190.546V50.6265H191.432V47.6812H192.184ZM185.682 53.0009C186.765 52.3929 187.27 51.1146 187.27 49.642V49.1621H185.88V48.5251H189.322V49.1621H188.031V49.642C188.031 50.974 188.532 52.1819 189.611 52.7362L189.148 53.3402C188.42 52.943 187.932 52.2522 187.667 51.4001C187.415 52.3722 186.927 53.1499 186.17 53.5966L185.682 53.0009Z" fill="#334155"/>
<line x1="66.3723" y1="85.2136" x2="66.3723" y2="290.39" stroke="black" stroke-width="1.05899"/>
<line x1="23" y1="123.471" x2="295.16" y2="123.471" stroke="black" stroke-width="1.05899"/>
<line x1="23.4834" y1="152.371" x2="295.644" y2="152.371" stroke="black" stroke-width="1.05899"/>
<line x1="23.4834" y1="183.042" x2="295.644" y2="183.042" stroke="black" stroke-width="1.05899"/>
<line x1="23.4834" y1="223.231" x2="295.644" y2="223.231" stroke="black" stroke-width="1.05899"/>
<path d="M222.455 365.107C222.465 363.157 222.993 361.534 223.944 360.153H224.73C224.032 361.172 223.38 363.266 223.375 365.107C223.38 366.953 224.032 369.042 224.73 370.071H223.944C222.993 368.685 222.465 367.061 222.455 365.107ZM233.086 359.615V366.337H232.279V359.615H233.086ZM225.712 362.511C225.707 361.187 226.747 360.262 228.122 360.256C229.497 360.262 230.526 361.187 230.532 362.511C230.526 363.85 229.497 364.781 228.122 364.776C226.747 364.781 225.707 363.85 225.712 362.511ZM226.509 362.511C226.498 363.426 227.191 364.062 228.122 364.062C229.037 364.062 229.735 363.426 229.735 362.511C229.735 361.611 229.037 360.97 228.122 360.97C227.191 360.97 226.498 361.611 226.509 362.511ZM227.15 368.602V365.655H227.957V367.92H233.376V368.602H227.15ZM236.943 365.107C236.933 367.061 236.406 368.685 235.454 370.071H234.668C235.366 369.042 236.018 366.953 236.023 365.107C236.018 363.266 235.366 361.172 234.668 360.153H235.454C236.406 361.534 236.933 363.157 236.943 365.107Z" fill="black"/>
<rect x="180.743" y="336.396" width="23.2978" height="11.6323" fill="#FF8700" fill-opacity="0.15" stroke="#FDBE78" stroke-width="1.05899"/>
<rect x="223.103" y="336.396" width="23.2978" height="11.6323" fill="#FF8700" fill-opacity="0.15" stroke="#FDBE78" stroke-width="1.05899"/>
<rect x="171.212" y="358.606" width="43.4185" height="12.6899" fill="#FF8700" fill-opacity="0.15" stroke="#FDBE78" stroke-width="1.05899"/>
<rect x="244.282" y="354.376" width="50.8315" height="21.1508" fill="#FF8700" fill-opacity="0.15" stroke="#FDBE78" stroke-width="1.05899"/>
<path d="M145.585 366.947V367.62H137.167V366.947H140.952V364.962H138.16V360.256H138.977V361.921H143.755V360.256H144.551V364.962H141.749V366.947H145.585ZM138.977 364.3H143.755V362.583H138.977V364.3ZM154.262 360.97V361.642H146.733V360.97H150.105V359.76H150.901V360.97H154.262ZM146.32 367.723V367.051H150.105V365.758C148.466 365.67 147.478 365.034 147.488 364C147.478 362.909 148.631 362.263 150.508 362.273C152.359 362.263 153.533 362.909 153.528 364C153.533 365.034 152.525 365.67 150.901 365.758V367.051H154.738V367.723H146.32ZM148.305 364C148.295 364.698 149.138 365.101 150.508 365.107C151.863 365.101 152.706 364.698 152.7 364C152.706 363.318 151.863 362.914 150.508 362.914C149.138 362.914 148.295 363.318 148.305 364ZM158.585 362.428C158.575 363.902 159.64 365.525 160.974 366.161L160.508 366.803C159.474 366.296 158.6 365.21 158.187 363.964C157.763 365.313 156.842 366.503 155.813 367.03L155.317 366.389C156.641 365.743 157.778 363.995 157.789 362.428V361.228H155.648V360.556H160.653V361.228H158.585V362.428ZM161.78 368.799V359.605H162.587V363.328H164.128V364.021H162.587V368.799H161.78Z" fill="black"/>
<path d="M141.734 345.751L141.723 345.069L144.278 342.38C145.162 341.439 145.586 340.932 145.591 340.239C145.586 339.469 144.945 338.972 144.102 338.967C143.207 338.972 142.649 339.536 142.644 340.374H141.765C141.754 339.05 142.778 338.16 144.133 338.16C145.493 338.16 146.454 339.076 146.46 340.239C146.454 341.077 146.067 341.728 144.743 343.093L143.026 344.862V344.924H146.594V345.751H141.734ZM150.4 345.855C148.74 345.855 147.778 344.459 147.783 342.008C147.778 339.577 148.75 338.16 150.4 338.16C152.044 338.16 153.016 339.577 153.016 342.008C153.016 344.459 152.06 345.855 150.4 345.855ZM148.683 342.008C148.688 343.947 149.314 345.027 150.4 345.027C151.481 345.027 152.111 343.947 152.106 342.008C152.111 340.068 151.475 338.972 150.4 338.967C149.324 338.972 148.688 340.068 148.683 342.008ZM154.257 345.751L154.247 345.069L156.801 342.38C157.686 341.439 158.11 340.932 158.115 340.239C158.11 339.469 157.468 338.972 156.626 338.967C155.731 338.972 155.173 339.536 155.167 340.374H154.288C154.278 339.05 155.302 338.16 156.657 338.16C158.016 338.16 158.978 339.076 158.983 340.239C158.978 341.077 158.59 341.728 157.267 343.093L155.55 344.862V344.924H159.118V345.751H154.257ZM160.121 344.221V343.455L163.492 338.264H164.64V343.404H165.685V344.221H164.64V345.751H163.751V344.221H160.121ZM161.124 343.404H163.751V339.443H163.658L161.124 343.342V343.404ZM174.206 337.405V344.21H173.389V341.025H170.742V340.374H173.389V339.267H170.742V338.615H173.389V337.405H174.206ZM167.133 342.845V338.067H167.95V342.152C169.217 342.147 170.437 342.075 171.838 341.821L171.921 342.494C170.427 342.773 169.175 342.835 167.826 342.845H167.133ZM168.281 346.392V343.631H169.098V345.71H174.455V346.392H168.281ZM215.211 337.405V342.825H214.394V342.318H212.533V341.78H214.394V337.405H215.211ZM207.6 340.87C209.378 340.88 211.654 340.86 213.639 340.642L213.691 341.17C212.791 341.299 211.855 341.377 210.94 341.418V342.856H210.144V341.449C209.275 341.48 208.437 341.48 207.693 341.48L207.6 340.87ZM208.313 338.967C208.313 338.114 209.213 337.581 210.599 337.581C211.969 337.581 212.874 338.114 212.884 338.967C212.874 339.825 211.969 340.337 210.599 340.343C209.213 340.337 208.313 339.825 208.313 338.967ZM209.006 343.745V343.155H215.211V345.058H209.844V345.886H215.511V346.485H209.048V344.49H214.405V343.745H209.006ZM209.079 338.967C209.073 339.453 209.673 339.784 210.599 339.784C211.514 339.784 212.114 339.453 212.119 338.967C212.114 338.476 211.514 338.145 210.599 338.15C209.673 338.145 209.073 338.476 209.079 338.967ZM251.283 337.736C252.658 337.742 253.656 338.579 253.662 339.774C253.656 340.973 252.658 341.801 251.283 341.801C249.892 341.801 248.889 340.973 248.894 339.774C248.889 338.579 249.892 337.742 251.283 337.736ZM249.69 339.774C249.68 340.58 250.357 341.139 251.283 341.139C252.193 341.139 252.876 340.58 252.876 339.774C252.876 338.977 252.193 338.414 251.283 338.419C250.357 338.414 249.68 338.977 249.69 339.774ZM250.29 343.218V342.566H256.268V344.779H251.107V345.813H256.599V346.465H250.311V344.169H255.461V343.218H250.29ZM255.461 342.121V337.395H256.268V342.121H255.461Z" fill="black"/>
<path d="M180.917 367.265V367.919H174.132V367.265H177.119V365.743H174.91V361.929H175.696V363.203H179.336V361.929H180.114V365.743H177.897V367.265H180.917ZM175.696 365.106H179.336V363.84H175.696V365.106ZM187.874 362.467V363.104H181.777V362.467H184.441V361.532H185.219V362.467H187.874ZM181.454 368.002V367.365H184.441V366.384C183.142 366.301 182.352 365.789 182.356 364.965C182.352 364.072 183.299 363.546 184.83 363.551C186.34 363.546 187.299 364.072 187.295 364.965C187.299 365.789 186.501 366.301 185.219 366.384V367.365H188.238V368.002H181.454ZM183.159 364.965C183.15 365.482 183.771 365.764 184.83 365.768C185.872 365.764 186.497 365.482 186.493 364.965C186.497 364.452 185.872 364.171 184.83 364.171C183.771 364.171 183.15 364.452 183.159 364.965ZM191.358 363.609C191.353 364.779 192.127 366.086 193.252 366.62L192.805 367.232C191.974 366.835 191.312 366 190.977 365.032C190.638 366.086 189.943 367.001 189.099 367.423L188.636 366.802C189.761 366.26 190.576 364.862 190.58 363.609V362.823H188.909V362.169H192.971V362.823H191.358V363.609ZM193.765 368.837V361.424H194.551V364.361H195.742V365.023H194.551V368.837H193.765ZM200.797 362.533C200.793 363.571 201.468 364.498 202.593 364.866L202.163 365.478C201.348 365.18 200.748 364.61 200.425 363.865C200.107 364.713 199.461 365.379 198.564 365.702L198.142 365.073C199.325 364.667 200.011 363.679 200.02 362.566V361.838H200.797V362.533ZM199.358 367.423C199.354 366.525 200.305 366.004 201.865 366.008C203.416 366.004 204.367 366.525 204.371 367.423C204.367 368.316 203.416 368.825 201.865 368.821C200.305 368.825 199.354 368.316 199.358 367.423ZM200.136 367.423C200.131 367.915 200.777 368.204 201.865 368.2C202.944 368.204 203.59 367.915 203.594 367.423C203.59 366.914 202.944 366.62 201.865 366.62C200.777 366.62 200.131 366.914 200.136 367.423ZM201.997 363.575V362.93H203.561V361.424H204.347V365.801H203.561V363.575H201.997ZM211.313 361.424V363.344H212.388V364.014H211.313V365.892H210.527V361.424H211.313ZM205.497 362.806V362.177H207.317V361.366H208.103V362.177H209.915V362.806H205.497ZM205.902 364.452C205.898 363.662 206.626 363.129 207.706 363.129C208.777 363.129 209.501 363.662 209.501 364.452C209.501 365.255 208.773 365.78 207.706 365.784C206.626 365.78 205.898 365.255 205.902 364.452ZM206.58 368.746V366.281H211.313V368.746H206.58ZM206.663 364.452C206.655 364.912 207.077 365.185 207.706 365.189C208.334 365.185 208.756 364.912 208.765 364.452C208.756 364.01 208.334 363.728 207.706 363.733C207.077 363.728 206.655 364.01 206.663 364.452ZM207.35 368.109H210.535V366.901H207.35V368.109Z" fill="#64748B"/>
<path d="M265.938 363.311C265.938 364.667 266.699 366.02 267.832 366.529L267.353 367.158C266.513 366.736 265.876 365.9 265.549 364.887C265.222 365.954 264.577 366.856 263.721 367.298L263.224 366.661C264.374 366.111 265.139 364.684 265.144 363.311V362.045H265.938V363.311ZM267.013 364.527V363.89H268.668V361.424H269.446V368.854H268.668V364.527H267.013ZM276.768 361.424V365.801H275.982V364.701H274.368V365.305H270.927V361.979H274.368V362.591H275.982V361.424H276.768ZM271.704 364.676H273.599V362.607H271.704V364.676ZM271.779 367.423C271.775 366.525 272.726 366.004 274.286 366.008C275.837 366.004 276.788 366.525 276.792 367.423C276.788 368.316 275.837 368.825 274.286 368.821C272.726 368.825 271.775 368.316 271.779 367.423ZM272.557 367.423C272.552 367.919 273.198 368.213 274.286 368.217C275.365 368.213 276.011 367.919 276.015 367.423C276.011 366.901 275.365 366.616 274.286 366.612C273.198 366.616 272.552 366.901 272.557 367.423ZM274.368 364.064H275.982V363.22H274.368V364.064Z" fill="#64748B"/>
<path d="M44.1432 100.491V109.706H43.3262V100.491H44.1432ZM36.904 104.411C36.9092 102.456 37.8813 101.21 39.2516 101.205C40.6167 101.21 41.6043 102.456 41.5991 104.411C41.6043 106.371 40.6167 107.612 39.2516 107.606C37.8813 107.612 36.9092 106.371 36.904 104.411ZM37.69 104.411C37.69 105.905 38.3312 106.888 39.2516 106.882C40.1772 106.888 40.8132 105.905 40.8132 104.411C40.8132 102.916 40.1772 101.934 39.2516 101.929C38.3312 101.934 37.69 102.916 37.69 104.411ZM54.1229 105.238V105.91H45.7048V105.238H54.1229ZM46.77 101.37V100.719H53.037V102.891H47.6077V103.811H53.2335V104.442H46.801V102.28H52.22V101.37H46.77ZM46.8527 109.561V106.748H53.037V109.561H46.8527ZM47.649 108.899H52.2407V107.41H47.649V108.899Z" fill="black"/>
<path d="M44.1639 163.948V173.142H43.3469V163.948H44.1639ZM36.6765 170.753C39.1637 169.574 40.4357 167.81 40.6167 165.613H37.1005V164.951H41.444C41.4337 167.593 40.203 169.936 37.1212 171.415L36.6765 170.753ZM52.9026 163.948V166.75H54.2884V167.433H52.9026V170.68H52.0856V163.948H52.9026ZM45.7255 168.964C47.9334 168.276 49.3657 166.968 49.5364 165.344H46.1081V164.661H50.4206C50.4206 167.03 48.7297 168.788 46.0771 169.615L45.7255 168.964ZM47.1423 172.945V169.998H47.9489V172.263H53.3266V172.945H47.1423Z" fill="black"/>
<path d="M39.639 134.728V137.83H36.9191V139.009H40.7041V139.671H32.3274V139.009H36.1124V137.83H33.4133V134.728H39.639ZM33.2581 141.284V140.633H39.67V143.528H38.853V141.284H33.2581ZM34.2096 137.179H38.8323V135.379H34.2096V137.179ZM44.6754 136.031C44.6754 137.225 45.5958 138.368 46.9402 138.833L46.5162 139.474C45.482 139.102 44.6805 138.332 44.2875 137.385C43.8894 138.44 43.0362 139.288 41.9452 139.692L41.5211 139.05C42.8759 138.564 43.8584 137.339 43.8584 136.041V135.638H41.7797V134.976H46.7334V135.638H44.6754V136.031ZM42.9173 141.005V140.333H49.1016V143.528H48.2846V141.005H42.9173ZM46.4438 137.427V136.744H48.2846V134.335H49.1016V139.847H48.2846V137.427H46.4438ZM53.9208 137.158C53.926 138.719 55.0584 140.307 56.4132 140.891L55.9581 141.532C54.8826 141.046 53.957 139.986 53.5278 138.714C53.0987 140.064 52.1679 141.232 51.1182 141.76L50.6322 141.119C51.9507 140.488 53.0987 138.75 53.1038 137.158V135.958H50.9321V135.286H56.1133V135.958H53.9208V137.158ZM57.3956 143.528V134.335H58.2126V143.528H57.3956Z" fill="black"/>
<path d="M29.9155 241.872C29.9207 243.35 30.6705 244.865 31.9218 245.533L31.4564 246.143C30.5412 245.641 29.8793 244.69 29.5432 243.583C29.2175 244.762 28.5608 245.796 27.6404 246.35L27.1543 245.729C28.4056 245.005 29.1451 243.392 29.1502 241.872V241.417H27.4025V240.744H29.1502V239.379H29.9259V240.744H31.6426V241.417H29.9155V241.872ZM31.0117 243.361V242.668H32.4596V239.265H33.2249V247.756H32.4596V243.361H31.0117ZM34.3107 248.232V239.038H35.0864V248.232H34.3107ZM44.0009 239.038V244.612H43.1839V242.513H41.6223V241.841H43.1839V239.038H44.0009ZM36.3894 240.672V240.01H38.6749V238.955H39.4713V240.01H41.7568V240.672H36.3894ZM36.9375 242.782C36.9375 241.82 37.8218 241.148 39.0679 241.148C40.3193 241.148 41.1983 241.82 41.2087 242.782C41.1983 243.774 40.3193 244.426 39.0679 244.426C37.8218 244.426 36.9375 243.774 36.9375 242.782ZM37.7132 242.782C37.7132 243.392 38.2664 243.795 39.0679 243.805C39.8694 243.795 40.4227 243.392 40.4227 242.782C40.4227 242.192 39.8694 241.779 39.0679 241.779C38.2664 241.779 37.7132 242.192 37.7132 242.782ZM37.9924 248.108V245.109H44.0009V248.108H37.9924ZM38.799 247.446H43.2046V245.76H38.799V247.446ZM51.0333 240.031V240.693H45.5522V240.031H47.8894V238.997H48.696V240.031H51.0333ZM46.0796 242.833C46.0744 241.82 46.9638 241.179 48.2927 241.168C49.6113 241.179 50.4955 241.82 50.5058 242.833C50.4955 243.831 49.6113 244.483 48.2927 244.488C46.9638 244.483 46.0744 243.831 46.0796 242.833ZM46.7001 245.957V245.295H52.719V248.232H51.9123V245.957H46.7001ZM46.8552 242.833C46.85 243.444 47.424 243.842 48.2927 243.837C49.1511 243.842 49.7302 243.444 49.7405 242.833C49.7302 242.208 49.1511 241.804 48.2927 241.799C47.424 241.804 46.85 242.208 46.8552 242.833ZM51.9123 244.788V239.038H52.719V241.592H54.1047V242.275H52.719V244.788H51.9123ZM56.5557 244.56V245.636H61.1474V244.56H61.9644V248.108H55.7491V244.56H56.5557ZM54.6839 243.909V243.237H63.0606V243.909H54.6839ZM55.1596 241.934C56.7988 241.711 58.4586 240.744 58.4586 239.576V239.141H59.2963V239.576C59.2911 240.708 60.9665 241.727 62.5849 241.934L62.285 242.585C60.863 242.373 59.4617 241.649 58.8774 240.62C58.2931 241.654 56.8867 242.373 55.4698 242.585L55.1596 241.934ZM56.5557 247.456H61.1474V246.277H56.5557V247.456ZM39.4609 257.51C39.4609 259.128 40.5313 260.798 41.8395 261.439L41.3431 262.091C40.3296 261.564 39.4816 260.473 39.0731 259.195C38.6646 260.55 37.7959 261.714 36.7617 262.267L36.2446 261.615C37.5891 260.953 38.6543 259.19 38.6646 257.51V255.834H39.4609V257.51ZM42.6875 264.232V255.038H43.4942V258.771H45.0351V259.475H43.4942V264.232H42.6875ZM53.9393 260.281V260.953H51.7158V264.232H50.8988V260.953H48.5409V264.232H47.7032V260.953H45.5211V260.281H53.9393ZM46.4726 257.417C46.4777 256.191 47.7756 255.415 49.7095 255.41C51.6382 255.415 52.9465 256.191 52.9465 257.417C52.9465 258.642 51.6382 259.407 49.7095 259.402C47.7756 259.407 46.4777 258.642 46.4726 257.417ZM47.3103 257.417C47.2999 258.228 48.2772 258.751 49.7095 258.751C51.1418 258.751 52.114 258.228 52.1191 257.417C52.114 256.6 51.1418 256.072 49.7095 256.072C48.2772 256.072 47.2999 256.6 47.3103 257.417Z" fill="black"/>
<path d="M32.7285 192.438V193.1H27.2474V192.438H29.5846V191.404H30.3912V192.438H32.7285ZM27.7748 195.241C27.7696 194.228 28.659 193.586 29.9879 193.576C31.3065 193.586 32.1907 194.228 32.201 195.241C32.1907 196.239 31.3065 196.891 29.9879 196.896C28.659 196.891 27.7696 196.239 27.7748 195.241ZM28.3953 198.364V197.702H34.4142V200.639H33.6075V198.364H28.3953ZM28.5504 195.241C28.5453 195.851 29.1192 196.249 29.9879 196.244C30.8463 196.249 31.4254 195.851 31.4358 195.241C31.4254 194.615 30.8463 194.212 29.9879 194.207C29.1192 194.212 28.5453 194.615 28.5504 195.241ZM33.6075 197.196V191.446H34.4142V194H35.8V194.683H34.4142V197.196H33.6075ZM38.2509 196.968V198.044H42.8426V196.968H43.6596V200.515H37.4443V196.968H38.2509ZM36.3791 196.317V195.644H44.7559V196.317H36.3791ZM36.8548 194.341C38.494 194.119 40.1538 193.152 40.1538 191.983V191.549H40.9915V191.983C40.9863 193.116 42.6617 194.135 44.2801 194.341L43.9802 194.993C42.5582 194.781 41.1569 194.057 40.5726 193.028C39.9883 194.062 38.5819 194.781 37.1651 194.993L36.8548 194.341ZM38.2509 199.864H42.8426V198.685H38.2509V199.864ZM50.7437 192.48V193.142H45.5418V192.48H47.7756V191.373H48.5823V192.48H50.7437ZM46.0899 195.313C46.0796 194.29 46.9276 193.612 48.1686 193.617C49.3993 193.612 50.2628 194.29 50.268 195.313C50.2628 196.342 49.3993 197.015 48.1686 197.02C46.9276 197.015 46.0796 196.342 46.0899 195.313ZM46.8449 195.313C46.8397 195.96 47.3671 196.394 48.1686 196.389C48.9598 196.394 49.5027 195.96 49.513 195.313C49.5027 194.667 48.9598 194.238 48.1686 194.228C47.3671 194.238 46.8397 194.667 46.8449 195.313ZM47.031 199.057C47.031 198.054 48.1945 197.485 50.1232 197.485C52.0416 197.485 53.205 198.054 53.205 199.057C53.205 200.045 52.0416 200.619 50.1232 200.619C48.1945 200.619 47.031 200.045 47.031 199.057ZM47.8687 199.057C47.8739 199.641 48.7271 199.993 50.1232 199.988C51.4986 199.993 52.3467 199.641 52.3467 199.057C52.3467 198.457 51.4986 198.121 50.1232 198.116C48.7271 198.121 47.8739 198.457 47.8687 199.057ZM50.7334 196.12V195.448H52.3363V194.331H50.7437V193.659H52.3363V191.446H53.1533V197.392H52.3363V196.12H50.7334ZM58.6965 192.511V193.173H55.8318V194.941H58.562V195.593H55.8318V197.671C57.1969 197.666 58.0449 197.625 59.0481 197.444L59.1205 198.116C58.0398 198.323 57.1555 198.369 55.6457 198.364H55.0562V192.511H58.6965ZM59.7306 200.174V191.642H60.5166V195.148H61.7783V191.446H62.5642V200.639H61.7783V195.82H60.5166V200.174H59.7306ZM35.2725 208.045V211.789H30.96V208.045H35.2725ZM31.6219 215.978C33.2042 215.802 34.7244 214.907 34.7244 213.992H32.0046V213.361H34.7348V212.461H35.5414V213.361H38.2923V213.992H35.5621C35.5569 214.887 37.0358 215.781 38.6129 215.978L38.3337 216.608C36.953 216.417 35.6914 215.766 35.1433 214.918C34.59 215.786 33.2973 216.417 31.9115 216.608L31.6219 215.978ZM31.7564 211.148H34.4762V208.707H31.7564V211.148ZM37.2581 212.73V207.446H38.0544V212.73H37.2581ZM50.1335 207.446V216.639H49.3372V211.882H48.0135V216.164H47.2482V207.653H48.0135V211.189H49.3372V207.446H50.1335ZM42.7496 214.261V208.573H43.5562V213.537C44.4663 213.532 45.4487 213.465 46.5656 213.237L46.6691 213.961C45.3867 214.194 44.3318 214.261 43.3184 214.261H42.7496ZM59.8134 211.996V212.668H51.4366V211.996H53.5153V210.698C52.781 210.414 52.3673 209.948 52.3673 209.328C52.3673 208.247 53.6083 207.627 55.625 207.621C57.6261 207.627 58.8671 208.247 58.8723 209.328C58.8671 209.943 58.4586 210.409 57.7347 210.698V211.996H59.8134ZM52.4501 214.995C52.4449 213.945 53.629 213.366 55.625 213.371C57.5951 213.366 58.7792 213.945 58.7895 214.995C58.7792 216.045 57.5951 216.619 55.625 216.619C53.629 216.619 52.4449 216.045 52.4501 214.995ZM53.205 209.328C53.1998 210 54.1203 210.388 55.625 210.393C57.1142 210.388 58.0398 210 58.0449 209.328C58.0398 208.666 57.1142 208.263 55.625 208.263C54.1203 208.263 53.1998 208.666 53.205 209.328ZM53.2774 214.995C53.2671 215.621 54.1513 215.993 55.625 215.988C57.0831 215.993 57.9674 215.621 57.9725 214.995C57.9674 214.369 57.0831 214.002 55.625 213.992C54.1513 214.002 53.2671 214.369 53.2774 214.995ZM54.3219 211.996H56.928V210.915C56.5402 210.988 56.1059 211.024 55.625 211.024C55.1441 211.024 54.7097 210.988 54.3219 210.92V211.996Z" fill="black"/>
<path d="M175.497 101.484V102.146H170.016V101.484H172.353V100.45H173.16V101.484H175.497ZM170.543 104.287C170.538 103.273 171.428 102.632 172.757 102.622C174.075 102.632 174.959 103.273 174.97 104.287C174.959 105.285 174.075 105.936 172.757 105.941C171.428 105.936 170.538 105.285 170.543 104.287ZM171.164 107.41V106.748H177.183V109.685H176.376V107.41H171.164ZM171.319 104.287C171.314 104.897 171.888 105.295 172.757 105.29C173.615 105.295 174.194 104.897 174.204 104.287C174.194 103.661 173.615 103.258 172.757 103.253C171.888 103.258 171.314 103.661 171.319 104.287ZM176.376 106.241V100.491H177.183V103.046H178.569V103.728H177.183V106.241H176.376ZM186.77 100.502V107.307H185.953V104.121H183.305V103.47H185.953V102.363H183.305V101.712H185.953V100.502H186.77ZM179.696 105.941V101.164H180.513V105.249C181.78 105.243 183 105.171 184.401 104.918L184.484 105.59C182.99 105.869 181.738 105.931 180.389 105.941H179.696ZM180.844 109.489V106.727H181.661V108.806H187.018V109.489H180.844ZM198.145 100.502V103.284H199.531V103.966H198.145V107.255H197.339V100.502H198.145ZM191.351 105.704V101.164H192.147V102.715H194.826V101.164H195.632V105.704H191.351ZM192.147 105.042H194.826V103.356H192.147V105.042ZM192.395 109.489V106.593H193.192V108.806H198.569V109.489H192.395Z" fill="black"/>
<path d="M150.5 85L150.5 124.132" stroke="black" stroke-width="1.05899"/>
<line x1="212.529" y1="85" x2="212.529" y2="124" stroke="black" stroke-width="1.05899"/>
<path d="M97.8614 309.737C98.8386 309.734 99.5445 310.28 99.5481 311.084C99.5445 311.88 98.8386 312.43 97.8614 312.423C96.8877 312.43 96.1855 311.88 96.1891 311.084C96.1855 310.28 96.8877 309.734 97.8614 309.737ZM95.7258 312.93C96.9239 312.93 98.578 312.904 99.9969 312.691L100.048 313.205C99.454 313.317 98.8423 313.386 98.245 313.426V315.724H97.5573V313.466C96.9275 313.494 96.3339 313.498 95.8199 313.502L95.7258 312.93ZM96.8551 311.084C96.8479 311.554 97.2714 311.866 97.8614 311.858C98.4658 311.866 98.8893 311.554 98.8893 311.084C98.8893 310.61 98.4658 310.291 97.8614 310.295C97.2714 310.291 96.8479 310.61 96.8551 311.084ZM100.446 315.927V309.448H101.126V315.927H100.446ZM104.087 309.853C105.086 309.853 105.828 310.483 105.832 311.395C105.828 312.199 105.253 312.781 104.435 312.912V313.94C105.01 313.911 105.586 313.867 106.121 313.799L106.172 314.313C104.8 314.551 103.291 314.562 102.169 314.551L102.06 313.987C102.563 313.983 103.142 313.98 103.747 313.965V312.912C102.911 312.789 102.339 312.202 102.342 311.395C102.339 310.483 103.07 309.853 104.087 309.853ZM103.008 311.395C103.005 311.971 103.464 312.354 104.087 312.351C104.702 312.354 105.155 311.971 105.158 311.395C105.155 310.816 104.702 310.44 104.087 310.432C103.464 310.44 103.005 310.816 103.008 311.395ZM106.512 315.927V309.441H107.2V312.076H108.199V312.655H107.2V315.927H106.512ZM115.453 309.441V310.903H116.394V311.46H115.453V312.886H114.765V309.441H115.453ZM110.363 312.452C111.996 312.123 112.846 311.359 112.941 310.44H110.653V309.889H113.701C113.701 311.544 112.582 312.597 110.653 313.009L110.363 312.452ZM111.29 315.847V313.161H115.482V313.683H111.978V314.24H115.409V314.74H111.978V315.326H115.626V315.847H111.29ZM122.677 312.828V313.379H116.763V312.828H122.677ZM117.4 310.954C117.396 310.139 118.305 309.654 119.716 309.658C121.121 309.654 122.029 310.139 122.033 310.954C122.029 311.772 121.121 312.267 119.716 312.271C118.305 312.267 117.396 311.772 117.4 310.954ZM117.508 315.789V313.907H118.203V315.232H122.011V315.789H117.508ZM118.109 310.954C118.106 311.435 118.721 311.706 119.716 311.706C120.708 311.706 121.327 311.435 121.324 310.954C121.327 310.49 120.708 310.208 119.716 310.208C118.721 310.208 118.106 310.49 118.109 310.954ZM130.532 309.441V315.927H129.873V312.604H129.041V315.594H128.396V309.571H129.041V312.039H129.873V309.441H130.532ZM125.283 314.276V310.208H125.971V313.672C126.568 313.665 127.223 313.618 127.962 313.473L128.034 314.074C127.144 314.233 126.402 314.28 125.703 314.276H125.283ZM137.3 312.604V313.161H131.386V312.604H132.805V311.732C132.302 311.529 132.019 311.203 132.023 310.773C132.019 310.002 132.913 309.553 134.34 309.556C135.762 309.553 136.653 310.002 136.656 310.773C136.653 311.203 136.37 311.529 135.867 311.735V312.604H137.3ZM132.088 314.754C132.088 314.012 132.928 313.603 134.34 313.603C135.733 313.603 136.573 314.012 136.577 314.754C136.573 315.503 135.733 315.912 134.34 315.912C132.928 315.912 132.088 315.503 132.088 314.754ZM132.732 310.773C132.729 311.207 133.33 311.449 134.34 311.453C135.342 311.449 135.95 311.207 135.947 310.773C135.95 310.338 135.342 310.088 134.34 310.085C133.33 310.088 132.729 310.338 132.732 310.773ZM132.783 314.754C132.78 315.16 133.348 315.391 134.34 315.384C135.317 315.391 135.889 315.16 135.889 314.754C135.889 314.356 135.317 314.132 134.34 314.132C133.348 314.132 132.78 314.356 132.783 314.754ZM133.5 312.604H135.187V311.913C134.933 311.953 134.647 311.974 134.34 311.974C134.036 311.974 133.753 311.953 133.5 311.916V312.604ZM140.746 309.831C142.107 309.831 143.142 310.552 143.142 311.641C143.142 312.738 142.107 313.455 140.746 313.451C139.389 313.455 138.354 312.738 138.357 311.641C138.354 310.552 139.389 309.831 140.746 309.831ZM137.793 315.087V314.515H143.729V315.087H137.793ZM139.016 311.641C139.012 312.398 139.751 312.886 140.746 312.886C141.738 312.886 142.473 312.398 142.476 311.641C142.473 310.888 141.738 310.385 140.746 310.389C139.751 310.385 139.012 310.888 139.016 311.641ZM150.135 314.573V315.152H144.199V314.573H146.813V313.437H144.923V311.373H148.731V310.461H144.909V309.897H149.412V311.924H145.604V312.872H149.564V313.437H147.493V314.573H150.135ZM157.823 309.448V314.392H157.136V313.053H156.093V312.503H157.136V311.699H156.093V311.135H157.136V309.448H157.823ZM152.423 310.758V310.201H153.943V309.441H154.624V310.201H156.072V310.758H152.423ZM152.785 312.315C152.785 311.572 153.4 311.066 154.276 311.069C155.149 311.066 155.771 311.572 155.775 312.315C155.771 313.06 155.149 313.567 154.276 313.567C153.4 313.567 152.785 313.06 152.785 312.315ZM153.429 312.315C153.426 312.756 153.773 313.031 154.276 313.031C154.772 313.031 155.123 312.756 155.131 312.315C155.123 311.887 154.772 311.612 154.276 311.605C153.773 311.612 153.426 311.887 153.429 312.315ZM153.589 315.789V313.958H154.284V315.232H157.968V315.789H153.589ZM161.088 310.635C161.085 311.46 161.66 312.213 162.645 312.524L162.319 313.06C161.581 312.825 161.041 312.336 160.755 311.721C160.473 312.43 159.905 312.991 159.127 313.263L158.772 312.713C159.785 312.38 160.397 311.544 160.401 310.642V310.461H158.975V309.904H162.486V310.461H161.088V310.635ZM159.648 314.696C159.648 313.936 160.477 313.491 161.827 313.494C163.162 313.491 163.977 313.936 163.977 314.696C163.977 315.467 163.162 315.916 161.827 315.912C160.477 315.916 159.648 315.467 159.648 314.696ZM160.335 314.696C160.332 315.131 160.889 315.373 161.827 315.369C162.757 315.373 163.307 315.131 163.304 314.696C163.307 314.273 162.757 314.034 161.827 314.037C160.889 314.034 160.332 314.273 160.335 314.696ZM163.231 313.335V309.441H163.919V311.048H164.86V311.612H163.919V313.335H163.231ZM167.169 311.431C167.169 312.452 167.643 313.491 168.537 313.972L168.154 314.479C167.524 314.146 167.09 313.527 166.854 312.792C166.623 313.578 166.188 314.255 165.562 314.631L165.157 314.11C166.054 313.589 166.518 312.477 166.525 311.431V311.171H165.352V310.606H166.525V309.672H167.169V310.606H168.32V311.171H167.169V311.431ZM167.893 312.539V311.967H168.827V309.578H169.479V315.601H168.827V312.539H167.893ZM170.137 315.927V309.441H170.796V315.927H170.137ZM177.044 309.441V313.371H176.356V311.96H175.342V311.388H176.356V309.441H177.044ZM171.643 310.635V310.085H173.207V309.383H173.887V310.085H175.444V310.635H171.643ZM172.02 312.09C172.02 311.41 172.657 310.932 173.547 310.932C174.437 310.932 175.067 311.41 175.067 312.09C175.067 312.789 174.437 313.252 173.547 313.256C172.657 313.252 172.02 312.789 172.02 312.09ZM172.678 312.09C172.678 312.485 173.029 312.731 173.547 312.734C174.057 312.731 174.408 312.485 174.408 312.09C174.408 311.71 174.057 311.457 173.547 311.46C173.029 311.457 172.678 311.71 172.678 312.09ZM172.765 315.847V313.69H177.044V315.847H172.765ZM173.446 315.29H176.37V314.233H173.446V315.29ZM181.915 310.099V310.649H178.05V310.099H179.642V309.412H180.33V310.099H181.915ZM178.404 312.119C178.401 311.41 179.045 310.946 179.983 310.939C180.916 310.946 181.554 311.41 181.554 312.119C181.554 312.832 180.916 313.299 179.983 313.299C179.045 313.299 178.401 312.832 178.404 312.119ZM178.853 314.385V313.827H183.139V315.927H182.451V314.385H178.853ZM179.07 312.119C179.063 312.521 179.432 312.763 179.983 312.763C180.533 312.763 180.902 312.521 180.909 312.119C180.902 311.721 180.533 311.471 179.983 311.468C179.432 311.471 179.063 311.721 179.07 312.119ZM182.451 313.494V309.441H183.139V311.2H184.08V311.772H183.139V313.494H182.451ZM185.861 313.328V314.016H188.909V313.328H189.596V315.847H185.18V313.328H185.861ZM184.449 312.923V312.351H190.364V312.923H184.449ZM184.768 311.41C186.024 311.247 187.052 310.555 187.055 309.788V309.513H187.758V309.788C187.761 310.534 188.796 311.258 190.038 311.41L189.792 311.953C188.742 311.808 187.826 311.308 187.41 310.617C186.99 311.312 186.071 311.808 185.028 311.953L184.768 311.41ZM185.861 315.297H188.909V314.551H185.861V315.297ZM193.809 309.549C195.272 309.546 196.122 309.94 196.126 310.664C196.122 311.392 195.272 311.786 193.809 311.786C192.347 311.786 191.489 311.392 191.493 310.664C191.489 309.94 192.347 309.546 193.809 309.549ZM190.856 312.734V312.184H196.77V312.734H190.856ZM191.565 313.748V313.234H196.025V314.754H192.246V315.333H196.206V315.862H191.573V314.255H195.344V313.748H191.565ZM192.21 310.664C192.206 311.066 192.778 311.272 193.809 311.272C194.848 311.272 195.42 311.066 195.417 310.664C195.42 310.28 194.848 310.056 193.809 310.056C192.778 310.056 192.206 310.28 192.21 310.664ZM204.451 309.448V314.197H203.763V309.448H204.451ZM199.109 312.734C200.126 312.358 200.727 311.424 200.73 310.447V309.803H201.432V310.447C201.429 311.395 202.03 312.264 203.032 312.611L202.677 313.161C201.928 312.883 201.374 312.333 201.085 311.63C200.799 312.383 200.238 312.984 199.478 313.277L199.109 312.734ZM200.209 315.789V313.748H200.904V315.232H204.647V315.789H200.209ZM207.752 310.823C207.752 311.587 208.378 312.3 209.366 312.575L209.041 313.111C208.288 312.897 207.723 312.434 207.426 311.833C207.144 312.503 206.579 313.035 205.805 313.277L205.479 312.749C206.464 312.434 207.072 311.659 207.072 310.823V310.744H205.66V310.193H207.072V309.412H207.759V310.193H209.164V310.744H207.752V310.823ZM206.521 314.711C206.518 313.951 207.354 313.52 208.715 313.516C210.072 313.52 210.905 313.951 210.908 314.711C210.905 315.474 210.072 315.916 208.715 315.912C207.354 315.916 206.518 315.474 206.521 314.711ZM207.202 314.711C207.198 315.131 207.763 315.38 208.715 315.384C209.667 315.38 210.224 315.131 210.228 314.711C210.224 314.291 209.667 314.052 208.715 314.052C207.763 314.052 207.198 314.291 207.202 314.711ZM208.961 311.822V311.258H210.199V309.441H210.887V313.371H210.199V311.822H208.961ZM216.982 309.441V311.069H217.923V311.648H216.982V313.219H216.294V309.441H216.982ZM211.893 310.628V310.078H213.486V309.383H214.173V310.078H215.759V310.628H211.893ZM212.248 312.032C212.244 311.341 212.881 310.892 213.826 310.896C214.76 310.892 215.397 311.341 215.397 312.032C215.397 312.724 214.76 313.176 213.826 313.169C212.881 313.176 212.244 312.724 212.248 312.032ZM212.834 315.847V313.487H213.515V314.117H216.294V313.487H216.982V315.847H212.834ZM212.914 312.032C212.906 312.419 213.276 312.658 213.826 312.662C214.376 312.658 214.745 312.419 214.752 312.032C214.745 311.652 214.376 311.406 213.826 311.41C213.276 311.406 212.906 311.652 212.914 312.032ZM213.515 315.297H216.294V314.653H213.515V315.297ZM223.678 309.441V315.927H222.991V309.441H223.678ZM218.691 314.276V310.07H219.371V313.683C220.319 313.679 221.315 313.596 222.354 313.386L222.448 313.965C221.3 314.2 220.258 314.28 219.233 314.276H218.691ZM229.752 309.441V311.953H230.794V312.517H229.752V315.941H229.064V309.441H229.752ZM224.974 314.327V310.063H228.007V310.621H225.662V313.755C226.751 313.751 227.566 313.704 228.492 313.538L228.579 314.117C227.562 314.298 226.701 314.331 225.495 314.327H224.974ZM231.844 315.362C231.562 315.359 231.327 315.131 231.33 314.848C231.327 314.566 231.562 314.334 231.844 314.334C232.123 314.334 232.355 314.566 232.358 314.848C232.355 315.131 232.123 315.359 231.844 315.362Z" fill="#64748B"/>
<rect x="66.5" y="85.5" width="84" height="38" fill="#FF8700" fill-opacity="0.15" stroke="#FDBE78"/>
<rect x="66.5" y="123.5" width="229" height="29" fill="#FF8700" fill-opacity="0.15" stroke="#FDBE78"/>
<rect x="66.5" y="152.5" width="229" height="30" fill="#FF8700" fill-opacity="0.15" stroke="#FDBE78"/>
<rect x="66.5" y="183.5" width="229" height="40" fill="#FF8700" fill-opacity="0.15" stroke="#FDBE78"/>
<rect x="66.5" y="224.5" width="229" height="65" fill="#FF8700" fill-opacity="0.15" stroke="#FDBE78"/>
<rect x="212.5" y="85.5" width="83" height="38" fill="#FF8700" fill-opacity="0.15" stroke="#FDBE78"/>
</svg>
