<svg width="16" height="16" viewBox="0 0 16 16" fill="none" xmlns="http://www.w3.org/2000/svg">
<g id="ic_alert">
<path id="Subtract" fill-rule="evenodd" clip-rule="evenodd" d="M8.0001 14.4001C11.5347 14.4001 14.4001 11.5347 14.4001 8.0001C14.4001 4.46548 11.5347 1.6001 8.0001 1.6001C4.46548 1.6001 1.6001 4.46548 1.6001 8.0001C1.6001 11.5347 4.46548 14.4001 8.0001 14.4001ZM8.70011 9.62666L8.8423 4.08135H7.15793L7.30011 9.62666H8.70011ZM8.01105 10.272C7.49699 10.2665 7.08136 10.6767 7.0923 11.1798C7.08136 11.6884 7.49699 12.0985 8.01105 12.0985C8.49777 12.0985 8.91886 11.6884 8.91886 11.1798C8.91886 10.6767 8.49777 10.2665 8.01105 10.272Z" fill="#FF8700"/>
</g>
</svg>
