<svg width="24" height="24" viewBox="0 0 24 24" fill="none" xmlns="http://www.w3.org/2000/svg">
<path d="M16.5 4V4.5H17H19C19.663 4.5 20.2989 4.76339 20.7678 5.23223C21.2366 5.70107 21.5 6.33696 21.5 7V19C21.5 19.663 21.2366 20.2989 20.7678 20.7678C20.2989 21.2366 19.663 21.5 19 21.5H5C4.33696 21.5 3.70107 21.2366 3.23223 20.7678C2.76339 20.2989 2.5 19.663 2.5 19V7C2.5 6.33696 2.76339 5.70107 3.23223 5.23223C3.70107 4.76339 4.33696 4.5 5 4.5H7H7.5V4V3C7.5 2.86739 7.55268 2.74021 7.64645 2.64645C7.74021 2.55268 7.86739 2.5 8 2.5C8.13261 2.5 8.25979 2.55268 8.35355 2.64645C8.44732 2.74021 8.5 2.86739 8.5 3V4V4.5H9H15H15.5V4V3C15.5 2.86739 15.5527 2.74021 15.6464 2.64645C15.7402 2.55268 15.8674 2.5 16 2.5C16.1326 2.5 16.2598 2.55268 16.3536 2.64645C16.4473 2.74021 16.5 2.86739 16.5 3V4ZM4 11.5H3.5V12V19C3.5 19.3978 3.65804 19.7794 3.93934 20.0607C4.22065 20.342 4.60218 20.5 5 20.5H19C19.3978 20.5 19.7794 20.342 20.0607 20.0607C20.342 19.7794 20.5 19.3978 20.5 19V12V11.5H20H4ZM20 10.5H20.5V10V7C20.5 6.60218 20.342 6.22064 20.0607 5.93934C19.7794 5.65804 19.3978 5.5 19 5.5H17H16.5V6V7C16.5 7.13261 16.4473 7.25979 16.3536 7.35355C16.2598 7.44732 16.1326 7.5 16 7.5C15.8674 7.5 15.7402 7.44732 15.6464 7.35355C15.5527 7.25978 15.5 7.13261 15.5 7V6V5.5H15H9H8.5V6V7C8.5 7.13261 8.44732 7.25978 8.35355 7.35355C8.25978 7.44732 8.13261 7.5 8 7.5C7.86739 7.5 7.74022 7.44732 7.64645 7.35355C7.55268 7.25978 7.5 7.13261 7.5 7V6V5.5H7H5C4.60217 5.5 4.22064 5.65804 3.93934 5.93934C3.65804 6.22064 3.5 6.60218 3.5 7V10V10.5H4H20Z" fill="black" stroke="#64748B"/>
</svg>
