<svg width="25" height="24" viewBox="0 0 25 24" fill="none" xmlns="http://www.w3.org/2000/svg">
<path d="M4.5 19.5C4.5 18.837 4.76339 18.2011 5.23223 17.7322C5.70107 17.2634 6.33696 17 7 17H20.5" stroke="#CBD5E1" stroke-width="2" stroke-linecap="round" stroke-linejoin="round"/>
<path d="M7 3H20.5V22H7C6.33696 22 5.70107 21.7498 5.23223 21.3044C4.76339 20.859 4.5 20.2549 4.5 19.625V5.375C4.5 4.74511 4.76339 4.14102 5.23223 3.69562C5.70107 3.25022 6.33696 3 7 3Z" stroke="#CBD5E1" stroke-width="2" stroke-linecap="round" stroke-linejoin="round"/>
<path d="M15 8H10C9.72386 8 9.5 7.77614 9.5 7.5C9.5 7.22386 9.72386 7 10 7H15C15.2761 7 15.5 7.22386 15.5 7.5C15.5 7.77614 15.2761 8 15 8Z" stroke="#CBD5E1" stroke-width="2"/>
</svg>
