<svg width="25" height="24" viewBox="0 0 25 24" fill="none" xmlns="http://www.w3.org/2000/svg">
<g clip-path="url(#clip0_1209_6054)">
<path d="M5.77515 10.9924V18.1824C5.77515 19.287 6.67058 20.1824 7.77515 20.1824H17.5601C18.6647 20.1824 19.5601 19.287 19.5601 18.1824V10.9924" stroke="#CBD5E1" stroke-width="2"/>
<path d="M12.2857 4.1304C12.5238 4.03464 12.7896 4.03406 13.0281 4.1288L22.8622 8.03518C23.7091 8.37161 23.7014 9.57309 22.8502 9.89858L13.0159 13.6592C12.7846 13.7476 12.5286 13.7471 12.2976 13.6576L2.58609 9.89713C1.74014 9.56956 1.73238 8.37538 2.57401 8.03685L12.2857 4.1304Z" stroke="#CBD5E1" stroke-width="2"/>
<path d="M22.4999 14C22.4999 14.5523 22.9476 15 23.4999 15C24.0522 15 24.4999 14.5523 24.4999 14L22.4999 14ZM22.4999 9L22.4999 14L24.4999 14L24.4999 9L22.4999 9Z" fill="#CBD5E1"/>
</g>
<defs>
<clipPath id="clip0_1209_6054">
<rect width="24" height="24" fill="white" transform="translate(0.5)"/>
</clipPath>
</defs>
</svg>
