<svg width="24" height="24" viewBox="0 0 24 24" fill="none" xmlns="http://www.w3.org/2000/svg">
<g clip-path="url(#clip0_542_6563)">
<path d="M5.27515 10.9922V18.1822C5.27515 19.2868 6.17058 20.1822 7.27515 20.1822H17.0601C18.1647 20.1822 19.0601 19.2868 19.0601 18.1822V10.9922" stroke="#FF8700" stroke-width="2"/>
<path d="M11.7857 4.1304C12.0238 4.03464 12.2896 4.03406 12.5281 4.1288L22.3622 8.03518C23.2091 8.37161 23.2014 9.57309 22.3502 9.89858L12.5159 13.6592C12.2846 13.7476 12.0286 13.7471 11.7976 13.6576L2.08609 9.89713C1.24014 9.56956 1.23238 8.37538 2.07401 8.03685L11.7857 4.1304Z" stroke="#FF8700" stroke-width="2"/>
<path d="M21.9999 14C21.9999 14.5523 22.4476 15 22.9999 15C23.5522 15 23.9999 14.5523 23.9999 14L21.9999 14ZM21.9999 9L21.9999 14L23.9999 14L23.9999 9L21.9999 9Z" fill="#FF8700"/>
</g>
<defs>
<clipPath id="clip0_542_6563">
<rect width="24" height="24" fill="white"/>
</clipPath>
</defs>
</svg>
