<svg width="24" height="24" viewBox="0 0 24 24" fill="none" xmlns="http://www.w3.org/2000/svg">
<g id="ic_noti">
<path id="Vector" d="M16.2426 3.75736C17.3679 4.88258 18 6.4087 18 8C18 15 21 17 21 17H3C3 17 6 15 6 8C6 6.4087 6.63214 4.88258 7.75736 3.75736C8.88258 2.63214 10.4087 2 12 2C13.5913 2 15.1174 2.63214 16.2426 3.75736Z" stroke="white" stroke-width="2" stroke-linecap="round" stroke-linejoin="round"/>
<path id="Vector_2" d="M16 20C15.5935 20.6083 15.01 21.1132 14.308 21.4642C13.606 21.8153 12.8101 22 12 22C11.1899 22 10.394 21.8153 9.69196 21.4642C8.98996 21.1132 8.4065 20.6083 8 20" stroke="white" stroke-width="2" stroke-linecap="round" stroke-linejoin="round"/>
</g>
</svg>
