<svg width="25" height="24" viewBox="0 0 25 24" fill="none" xmlns="http://www.w3.org/2000/svg">
<path d="M6.5 3L3.5 6.6V19.2C3.5 19.6774 3.71071 20.1352 4.08579 20.4728C4.46086 20.8104 4.96957 21 5.5 21H19.5C20.0304 21 20.5391 20.8104 20.9142 20.4728C21.2893 20.1352 21.5 19.6774 21.5 19.2V6.6L18.5 3H6.5Z" stroke="#CBD5E1" stroke-width="2" stroke-linecap="round" stroke-linejoin="round"/>
<path d="M15.5 11C15.5 11.7956 15.1839 12.5587 14.6213 13.1213C14.0587 13.6839 13.2956 14 12.5 14C11.7044 14 10.9413 13.6839 10.3787 13.1213C9.81607 12.5587 9.5 11.7956 9.5 11" stroke="#CBD5E1" stroke-width="2" stroke-linecap="round" stroke-linejoin="round"/>
<path d="M3.5 7H21.5" stroke="#CBD5E1" stroke-width="2" stroke-linecap="round" stroke-linejoin="round"/>
</svg>
