<svg width="24" height="24" viewBox="0 0 24 24" fill="none" xmlns="http://www.w3.org/2000/svg">
<path d="M6 3L3 6.6V19.2C3 19.6774 3.21071 20.1352 3.58579 20.4728C3.96086 20.8104 4.46957 21 5 21H19C19.5304 21 20.0391 20.8104 20.4142 20.4728C20.7893 20.1352 21 19.6774 21 19.2V6.6L18 3H6Z" stroke="#FF8700" stroke-width="2" stroke-linecap="round" stroke-linejoin="round"/>
<path d="M15 11C15 11.7956 14.6839 12.5587 14.1213 13.1213C13.5587 13.6839 12.7956 14 12 14C11.2044 14 10.4413 13.6839 9.87868 13.1213C9.31607 12.5587 9 11.7956 9 11" stroke="#FF8700" stroke-width="2" stroke-linecap="round" stroke-linejoin="round"/>
<path d="M3 7H21" stroke="#FF8700" stroke-width="2" stroke-linecap="round" stroke-linejoin="round"/>
</svg>
