<svg width="25" height="24" viewBox="0 0 25 24" fill="none" xmlns="http://www.w3.org/2000/svg">
<g id="ic_study">
<g id="Group 1597880729">
<path id="Vector" d="M4.5 18.738C4.5 18.1381 4.73831 17.5628 5.1625 17.1386C5.58669 16.7144 6.16201 16.4761 6.7619 16.4761H18.9762" stroke="#CBD5E1" stroke-width="2" stroke-linecap="round" stroke-linejoin="round"/>
<path id="Vector_2" d="M18.9762 12.4048V21H6.7619C6.16201 21 5.58669 20.7617 5.1625 20.3375C4.73831 19.9133 4.5 19.338 4.5 18.7381V5.16669C4.5 4.5668 4.73831 3.99147 5.1625 3.56728C5.58669 3.14309 6.16201 2.90479 6.7619 2.90479H11.7381" stroke="#CBD5E1" stroke-width="2" stroke-linecap="round" stroke-linejoin="round"/>
<path id="Vector_3" d="M18.6227 2.45966C18.917 2.16535 19.3162 2 19.7324 2C19.9385 2 20.1426 2.04059 20.333 2.11946C20.5234 2.19833 20.6964 2.31393 20.8422 2.45966C20.9879 2.6054 21.1035 2.7784 21.1824 2.96881C21.2612 3.15922 21.3018 3.3633 21.3018 3.56939C21.3018 3.77549 21.2612 3.97956 21.1824 4.16997C21.1035 4.36038 20.9879 4.53339 20.8422 4.67912L13.7923 11.7844L10.833 12.5242L11.5728 9.56494L18.6227 2.45966Z" stroke="#CBD5E1" stroke-width="2" stroke-linecap="round" stroke-linejoin="round"/>
</g>
</g>
</svg>
