<svg width="21" height="21" viewBox="0 0 21 21" fill="none" xmlns="http://www.w3.org/2000/svg">
<path d="M10.8767 3.58756C10.7346 3.52608 10.5788 3.50341 10.4251 3.52186C10.2713 3.5403 10.1253 3.59921 10.0017 3.69256L5.81924 7.00006H2.62549C2.39342 7.00006 2.17086 7.09225 2.00677 7.25634C1.84268 7.42043 1.75049 7.64299 1.75049 7.87506V13.1251C1.75049 13.3571 1.84268 13.5797 2.00677 13.7438C2.17086 13.9079 2.39342 14.0001 2.62549 14.0001H5.81924L9.95799 17.3076C10.1119 17.4311 10.3031 17.4989 10.5005 17.5001C10.6312 17.5022 10.7604 17.4722 10.8767 17.4126C11.0256 17.3416 11.1515 17.2301 11.2397 17.0908C11.328 16.9514 11.375 16.79 11.3755 16.6251V4.37506C11.375 4.21013 11.328 4.0487 11.2397 3.90936C11.1515 3.77003 11.0256 3.65848 10.8767 3.58756ZM9.62549 14.8051L6.66799 12.4426C6.51404 12.319 6.32286 12.2512 6.12549 12.2501H3.50049V8.75006H6.12549C6.32286 8.74891 6.51404 8.68107 6.66799 8.55756L9.62549 6.19506V14.8051ZM13.248 3.57881C13.1331 3.56272 13.0161 3.56942 12.9038 3.59854C12.7915 3.62765 12.686 3.67859 12.5934 3.74847C12.5008 3.81835 12.4228 3.90578 12.364 4.00579C12.3051 4.10579 12.2666 4.2164 12.2505 4.33131C12.2344 4.44621 12.2411 4.56317 12.2702 4.67548C12.2993 4.7878 12.3503 4.89328 12.4201 4.98591C12.5613 5.17297 12.7709 5.29632 13.003 5.32881C14.2422 5.51977 15.3721 6.14792 16.1884 7.09962C17.0047 8.05133 17.4534 9.26374 17.4534 10.5176C17.4534 11.7714 17.0047 12.9838 16.1884 13.9355C15.3721 14.8872 14.2422 15.5153 13.003 15.7063C12.7709 15.7226 12.5548 15.8303 12.4022 16.0059C12.2496 16.1815 12.173 16.4105 12.1892 16.6426C12.2055 16.8746 12.3132 17.0907 12.4888 17.2433C12.6644 17.3959 12.8934 17.4726 13.1255 17.4563H13.248C14.9042 17.2058 16.4157 16.3696 17.508 15.0996C18.6003 13.8297 19.2009 12.2101 19.2009 10.5351C19.2009 8.85998 18.6003 7.24044 17.508 5.97048C16.4157 4.70053 14.9042 3.86436 13.248 3.61381V3.57881ZM12.8455 12.1363C12.6134 12.1734 12.4056 12.3012 12.2678 12.4916C12.1299 12.6819 12.0734 12.9192 12.1105 13.1513C12.1476 13.3834 12.2754 13.5912 12.4658 13.729C12.6561 13.8669 12.8934 13.9234 13.1255 13.8863C13.2204 13.8852 13.3147 13.8705 13.4055 13.8426C14.0871 13.6009 14.6772 13.1539 15.0944 12.5632C15.5117 11.9725 15.7358 11.267 15.7358 10.5438C15.7358 9.82058 15.5117 9.11511 15.0944 8.52441C14.6772 7.9337 14.0871 7.48677 13.4055 7.24506C13.185 7.1708 12.9441 7.18716 12.7357 7.29054C12.5273 7.39391 12.3685 7.57585 12.2942 7.79631C12.22 8.01677 12.2363 8.2577 12.3397 8.4661C12.4431 8.6745 12.625 8.8333 12.8455 8.90756C13.1775 9.0335 13.4634 9.25747 13.6651 9.54973C13.8668 9.84198 13.9749 10.1887 13.9749 10.5438C13.9749 10.8989 13.8668 11.2456 13.6651 11.5379C13.4634 11.8301 13.1775 12.0541 12.8455 12.1801V12.1363Z" fill="#334155"/>
</svg>
