<svg width="480" height="800" viewBox="0 0 480 800" fill="none" xmlns="http://www.w3.org/2000/svg">
<g clip-path="url(#clip0_1417_24370)">
<rect width="480" height="800" fill="url(#paint0_linear_1417_24370)"/>
<circle cx="240" cy="-7" r="278" fill="white"/>
<path d="M191.071 117.828V139.156H188.094V117.828H191.071ZM173.235 133.133C174.864 133.121 176.727 133.121 178.672 133.074V131.27C176.34 130.848 174.817 129.395 174.828 127.391C174.817 125.012 176.985 123.383 180.125 123.383C183.289 123.383 185.493 125.012 185.493 127.391C185.493 129.383 183.969 130.836 181.625 131.27V132.969C183.418 132.887 185.211 132.746 186.922 132.523L187.133 134.727C182.457 135.535 177.43 135.582 173.633 135.57L173.235 133.133ZM173.657 122.539V120.195H178.672V117.922H181.649V120.195H186.618V122.539H173.657ZM177.664 127.391C177.653 128.516 178.672 129.125 180.125 129.125C181.625 129.125 182.633 128.516 182.633 127.391C182.633 126.289 181.625 125.668 180.125 125.656C178.672 125.668 177.653 126.289 177.664 127.391ZM211.473 117.852V133.953H208.473V132.266H204.395V130.227H208.473V117.852H211.473ZM193.333 127.297C197.235 127.273 202.509 127.215 207.02 126.664L207.184 128.797C205.497 129.078 203.751 129.277 202.028 129.406V133.461H199.028V136.391H211.942V138.781H196.052V132.406H199.028V129.582C197.118 129.652 195.302 129.664 193.684 129.664L193.333 127.297ZM194.903 122.398C194.903 120.125 197.095 118.566 200.27 118.578C203.364 118.566 205.579 120.125 205.591 122.398C205.579 124.684 203.364 126.16 200.27 126.148C197.095 126.16 194.903 124.684 194.903 122.398ZM197.739 122.398C197.727 123.43 198.747 124.004 200.27 123.992C201.7 124.004 202.731 123.43 202.755 122.398C202.731 121.344 201.7 120.758 200.27 120.758C198.747 120.758 197.727 121.344 197.739 122.398ZM230.493 117.828V126.008H233.517V128.469H230.493V139.109H227.493V117.828H230.493ZM213.431 133.133C218.482 130.602 221.2 127.203 221.763 122.445H214.65V120.008H224.798C224.775 126.383 222.29 131.902 215.118 135.43L213.431 133.133ZM251.787 117.828V129.289H248.787V117.828H251.787ZM234.256 123.781C234.256 120.781 236.763 118.695 240.092 118.719C243.408 118.695 245.916 120.781 245.928 123.781C245.916 126.688 243.408 128.773 240.092 128.773C236.763 128.773 234.256 126.688 234.256 123.781ZM237.185 123.781C237.162 125.363 238.381 126.312 240.092 126.312C241.756 126.312 242.963 125.363 242.974 123.781C242.963 122.176 241.756 121.191 240.092 121.203C238.381 121.191 237.162 122.176 237.185 123.781ZM237.513 138.922V130.227H240.467V132.219H248.81V130.227H251.787V138.922H237.513ZM240.467 136.508H248.81V134.539H240.467V136.508ZM265.663 118.695C268.78 118.707 271.018 120.453 271.03 123.031C271.018 125.117 269.495 126.711 267.21 127.203V128.762C268.885 128.656 270.55 128.504 272.108 128.281L272.342 130.461C267.948 131.234 263.061 131.34 259.499 131.328L259.194 128.961C260.671 128.961 262.393 128.949 264.21 128.902V127.227C261.854 126.758 260.284 125.152 260.296 123.031C260.284 120.453 262.522 118.707 265.663 118.695ZM262.007 138.758V132.688H265.007V136.367H277.03V138.758H262.007ZM263.085 123.031C263.061 124.332 264.151 125.082 265.663 125.094C267.198 125.082 268.217 124.332 268.217 123.031C268.217 121.695 267.186 120.969 265.663 120.945C264.151 120.969 263.061 121.695 263.085 123.031ZM273.303 134.117V117.852H276.303V124.555H279.022V127.039H276.303V134.117H273.303ZM299.027 134.328V136.789H279.503V134.328H284.495V131.07H281.753V123.898H293.823V121.602H281.73V119.211H296.777V126.289H284.753V128.656H297.269V131.07H294.245V134.328H299.027ZM287.402 134.328H291.316V131.07H287.402V134.328ZM304.617 120.031L304.312 131.914H301.312L301.007 120.031H304.617ZM300.867 135.242C300.843 134.164 301.734 133.285 302.836 133.297C303.879 133.285 304.781 134.164 304.781 135.242C304.781 136.332 303.879 137.211 302.836 137.211C301.734 137.211 300.843 136.332 300.867 135.242Z" fill="#FF8700"/>
<path d="M151.044 151.648C151.044 153.645 153.17 155.531 155.528 155.955L154.927 157.035C152.965 156.611 151.167 155.326 150.374 153.604C149.567 155.319 147.769 156.598 145.807 157.035L145.233 155.955C147.557 155.518 149.67 153.645 149.677 151.648V150.719H151.044V151.648ZM144.823 160.549V159.469H156.034V160.549H144.823ZM166.432 150.418V151.375C166.439 152.298 166.439 153.357 166.165 154.725H167.799V155.764H162.863V156.898H166.514V159.879H159.254V160.986H166.951V162.012H157.955V158.922H165.229V157.91H157.928V156.898H161.578V155.764H156.656V154.725H164.859C164.962 154.232 165.03 153.788 165.071 153.378L157.901 153.672L157.736 152.646L165.133 152.462C165.147 152.1 165.147 151.758 165.147 151.43H158.051V150.418H166.432ZM179.673 159.592V160.699H168.462V159.592H173.384V156.98H169.447V155.955H171.279V152.1H169.419V151.047H178.648V152.1H176.775V155.955H178.607V156.98H174.669V159.592H179.673ZM172.564 155.955H175.503V152.1H172.564V155.955ZM190.44 149.926V158.826H189.141V149.926H190.44ZM180.528 153.781C180.535 152.011 181.943 150.753 183.796 150.746C185.641 150.753 187.049 152.011 187.049 153.781C187.049 155.579 185.641 156.83 183.796 156.83C181.943 156.83 180.535 155.579 180.528 153.781ZM181.799 153.781C181.793 154.937 182.654 155.695 183.796 155.695C184.917 155.695 185.778 154.937 185.778 153.781C185.778 152.653 184.917 151.881 183.796 151.881C182.654 151.881 181.793 152.653 181.799 153.781ZM182.428 161.902V157.924H183.741V160.85H190.809V161.902H182.428ZM202.041 156.434V157.473H193.51V150.924H201.918V151.977H194.822V153.631H201.658V154.656H194.822V156.434H202.041ZM192.102 160.617V159.551H203.312V160.617H192.102ZM214.462 149.912V162.162H213.218V149.912H214.462ZM204.058 155.203C204.058 152.551 205.097 150.89 206.697 150.896C208.187 150.89 209.192 152.305 209.342 154.602H210.73V150.145H211.974V161.561H210.73V155.654H209.349C209.233 158.047 208.214 159.53 206.697 159.523C205.097 159.53 204.058 157.862 204.058 155.203ZM205.261 155.203C205.261 157.151 205.815 158.3 206.697 158.293C207.599 158.3 208.159 157.151 208.159 155.203C208.159 153.248 207.599 152.106 206.697 152.113C205.815 152.106 205.261 153.248 205.261 155.203ZM224.457 150.65C227.075 150.657 228.982 151.949 228.982 153.904C228.982 155.736 227.383 156.96 225.099 157.145V159.551H230.09V160.631H218.879V159.551H223.814V157.145C221.545 156.96 219.938 155.736 219.945 153.904C219.938 151.949 221.852 150.657 224.457 150.65ZM221.203 153.904C221.203 155.278 222.57 156.133 224.457 156.146C226.357 156.133 227.718 155.278 227.724 153.904C227.718 152.578 226.357 151.703 224.457 151.717C222.57 151.703 221.203 152.578 221.203 153.904ZM240.857 149.926V158.895H239.558V149.926H240.857ZM230.767 156.133C232.688 155.422 233.822 153.658 233.829 151.812V150.596H235.155V151.812C235.149 153.604 236.283 155.244 238.177 155.9L237.507 156.939C236.092 156.413 235.046 155.374 234.499 154.048C233.959 155.47 232.899 156.604 231.464 157.158L230.767 156.133ZM232.845 161.902V158.047H234.157V160.85H241.226V161.902H232.845ZM255.869 149.926V158.156H254.57V154.369H252.068V153.303H254.57V149.926H255.869ZM245.834 156.42C248.718 155.545 250.352 153.959 250.598 151.922H246.463V150.869H251.986C251.986 154.068 249.997 156.311 246.408 157.445L245.834 156.42ZM247.132 161.082C249.436 160.713 251.186 159.318 251.193 157.65V157.145H252.478V157.65C252.478 159.305 254.208 160.672 256.511 161.068L255.978 162.094C254.119 161.759 252.567 160.829 251.829 159.482C251.084 160.836 249.511 161.772 247.638 162.121L247.132 161.082ZM263.054 150.117C265.815 150.11 267.422 150.855 267.429 152.223C267.422 153.597 265.815 154.342 263.054 154.342C260.292 154.342 258.672 153.597 258.679 152.223C258.672 150.855 260.292 150.11 263.054 150.117ZM257.476 156.133V155.094H268.645V156.133H257.476ZM258.815 158.047V157.076H267.237V159.947H260.101V161.041H267.579V162.039H258.829V159.004H265.952V158.047H258.815ZM260.032 152.223C260.025 152.981 261.105 153.371 263.054 153.371C265.016 153.371 266.096 152.981 266.089 152.223C266.096 151.498 265.016 151.074 263.054 151.074C261.105 151.074 260.025 151.498 260.032 152.223ZM282.072 149.912V154.109H283.822V155.189H282.072V159.482H280.773V149.912H282.072ZM272.351 157.104C273.294 157.104 274.395 157.104 275.55 157.062V156.208C274.156 156.044 273.267 155.374 273.281 154.369C273.267 153.18 274.436 152.469 276.193 152.482C277.95 152.469 279.098 153.18 279.105 154.369C279.098 155.374 278.23 156.044 276.849 156.201V157.001C277.943 156.939 279.05 156.837 280.076 156.68L280.185 157.596C277.574 158.088 274.627 158.122 272.488 158.143L272.351 157.104ZM272.666 152.004V151.047H275.55V149.871H276.849V151.047H279.734V152.004H272.666ZM274.156 161.902V158.84H275.455V160.85H282.509V161.902H274.156ZM274.511 154.369C274.511 154.964 275.147 155.34 276.193 155.34C277.225 155.34 277.868 154.964 277.861 154.369C277.868 153.733 277.225 153.364 276.193 153.371C275.147 153.364 274.511 153.733 274.511 154.369ZM287.643 150.623C288.662 150.616 289.53 150.999 290.104 151.635H293.167V149.912H294.466V157.145H293.167V155.49H290.097C289.523 156.119 288.655 156.495 287.643 156.488C285.798 156.495 284.424 155.271 284.43 153.562C284.424 151.833 285.798 150.616 287.643 150.623ZM285.675 153.562C285.668 154.636 286.495 155.395 287.643 155.381C288.758 155.395 289.585 154.636 289.585 153.562C289.585 152.462 288.758 151.73 287.643 151.744C286.495 151.73 285.668 152.462 285.675 153.562ZM286.221 159.783C286.215 158.286 287.801 157.411 290.364 157.418C292.914 157.411 294.5 158.286 294.507 159.783C294.5 161.273 292.914 162.142 290.364 162.135C287.801 162.142 286.215 161.273 286.221 159.783ZM287.493 159.783C287.486 160.624 288.566 161.116 290.364 161.109C292.162 161.116 293.235 160.624 293.235 159.783C293.235 158.908 292.162 158.423 290.364 158.416C288.566 158.423 287.486 158.908 287.493 159.783ZM290.699 152.674C290.781 152.947 290.829 153.248 290.829 153.562C290.829 153.863 290.781 154.157 290.699 154.424H293.167V152.674H290.699ZM305.697 149.912V152.988H307.475V154.082H305.697V157.049H304.398V149.912H305.697ZM296.086 152.154V151.115H299.094V149.803H300.393V151.115H303.387V152.154H296.086ZM296.756 154.807C296.749 153.501 297.952 152.653 299.736 152.66C301.5 152.653 302.703 153.501 302.703 154.807C302.703 156.112 301.5 156.967 299.736 156.953C297.952 156.967 296.749 156.112 296.756 154.807ZM297.863 162.012V157.555H299.148V158.744H304.398V157.555H305.697V162.012H297.863ZM298.014 154.807C298 155.538 298.697 155.989 299.736 155.996C300.775 155.989 301.473 155.538 301.486 154.807C301.473 154.089 300.775 153.624 299.736 153.631C298.697 153.624 298 154.089 298.014 154.807ZM299.148 160.973H304.398V159.756H299.148V160.973ZM318.064 149.912V162.162H316.765V149.912H318.064ZM308.644 159.045V151.102H309.929V157.924C311.72 157.917 313.6 157.76 315.562 157.363L315.74 158.457C313.573 158.901 311.604 159.052 309.669 159.045H308.644ZM329.255 149.912V154.656H331.223V155.723H329.255V162.189H327.956V149.912H329.255ZM320.231 159.141V151.088H325.96V152.141H321.53V158.061C323.588 158.054 325.126 157.965 326.876 157.65L327.04 158.744C325.119 159.086 323.492 159.147 321.215 159.141H320.231ZM333.787 151.102L333.664 158.143H332.31L332.187 151.102H333.787ZM332.023 160.125C332.016 159.592 332.461 159.154 332.994 159.154C333.52 159.154 333.958 159.592 333.965 160.125C333.958 160.658 333.52 161.089 332.994 161.096C332.461 161.089 332.016 160.658 332.023 160.125Z" fill="#94A3B8"/>
</g>
<defs>
<linearGradient id="paint0_linear_1417_24370" x1="240" y1="148" x2="240" y2="475" gradientUnits="userSpaceOnUse">
<stop stop-color="#FF8700"/>
<stop offset="0.63276" stop-color="#FFE1C0"/>
<stop offset="1" stop-color="white"/>
</linearGradient>
<clipPath id="clip0_1417_24370">
<rect width="480" height="800" fill="white"/>
</clipPath>
</defs>
</svg>
