<svg width="440" height="48" viewBox="0 0 440 48" fill="none" xmlns="http://www.w3.org/2000/svg">
<rect width="440" height="48" rx="8" fill="#FFDF36"/>
<path d="M162.995 12C156.371 12 151 16.4058 151 21.8426C151 25.3579 153.244 28.4372 156.624 30.1855L155.407 34.7084C155.407 34.7084 155.385 34.9193 155.515 34.999C155.646 35.0786 155.804 35.0177 155.804 35.0177C156.182 34.9615 160.175 32.0415 160.873 31.5353C161.563 31.6384 162.279 31.69 163.005 31.69C169.629 31.69 175 27.2842 175 21.8473C175 16.4104 169.62 12 162.995 12Z" fill="black"/>
<path d="M156.362 25.2735C155.979 25.2735 155.668 24.9642 155.668 24.5845V20.3053H154.587C154.213 20.3053 153.911 19.9913 153.911 19.6023C153.911 19.2132 154.217 18.8992 154.587 18.8992H158.133C158.507 18.8992 158.809 19.2132 158.809 19.6023C158.809 19.9913 158.502 20.3053 158.133 20.3053H157.051V24.5845C157.051 24.9595 156.736 25.2735 156.358 25.2735H156.362ZM162.432 25.2641C162.143 25.2641 161.923 25.1423 161.855 24.9454L161.513 24.008H159.404L159.061 24.9454C158.994 25.1423 158.773 25.2641 158.484 25.2641C158.331 25.2641 158.183 25.2313 158.043 25.1704C157.854 25.0766 157.669 24.8282 157.881 24.1486L159.534 19.6163C159.652 19.2695 160.008 18.9133 160.458 18.9039C160.909 18.8945 161.269 19.2695 161.382 19.6163L163.036 24.1486C163.247 24.8282 163.063 25.086 162.873 25.1704C162.738 25.236 162.585 25.2641 162.432 25.2641ZM161.148 22.7332L160.458 20.6896L159.769 22.7332H161.148ZM164.149 25.1704C163.788 25.1704 163.486 24.8751 163.486 24.5142V19.6163C163.486 19.2179 163.802 18.8945 164.194 18.8945C164.586 18.8945 164.901 19.2226 164.901 19.6163V23.844H166.37C166.731 23.844 167.033 24.1393 167.033 24.5002C167.033 24.861 166.735 25.1563 166.37 25.1563L164.149 25.1704ZM167.299 24.5423V19.621C167.299 19.2226 167.614 18.8992 167.993 18.8992C168.371 18.8992 168.686 19.2273 168.686 19.621V21.1677L170.624 19.1523C170.837 18.9305 171.241 18.9499 171.485 19.2039C171.714 19.4424 171.774 19.8457 171.534 20.0991L169.948 21.7395L171.652 24.083C171.88 24.3877 171.825 24.8624 171.516 25.086C171.212 25.3204 170.765 25.2423 170.548 24.9454L168.925 22.7097L168.686 22.9581V24.5283C168.686 25.4635 167.299 25.4995 167.299 24.5423Z" fill="#FFE812"/>
<path d="M193.822 18.6562C193.809 22.2725 192.701 25.4785 188.23 27.6797L187.52 26.709C189.734 25.6221 191.054 24.3027 191.778 22.751L187.779 23.127L187.588 22.0059L192.182 21.6982C192.366 21.0693 192.469 20.4062 192.517 19.709H188.23V18.6562H193.822ZM195.695 29.6484V17.4121H196.994V22.3066H198.895V23.373H196.994V29.6484H195.695ZM205.642 18.6562C205.628 22.2725 204.521 25.4785 200.05 27.6797L199.339 26.709C201.554 25.6221 202.873 24.3027 203.598 22.751L199.599 23.127L199.408 22.0059L204.001 21.6982C204.186 21.0693 204.288 20.4062 204.336 19.709H200.05V18.6562H205.642ZM207.515 29.6484V17.4121H208.814V22.3066H210.714V23.373H208.814V29.6484H207.515ZM216.669 18.1504C219.287 18.1572 221.194 19.4492 221.194 21.4043C221.194 23.2363 219.594 24.46 217.311 24.6445V27.0508H222.301V28.1309H211.09V27.0508H216.026V24.6445C213.756 24.46 212.15 23.2363 212.157 21.4043C212.15 19.4492 214.064 18.1572 216.669 18.1504ZM213.415 21.4043C213.415 22.7783 214.782 23.6328 216.669 23.6465C218.569 23.6328 219.929 22.7783 219.936 21.4043C219.929 20.0781 218.569 19.2031 216.669 19.2168C214.782 19.2031 213.415 20.0781 213.415 21.4043ZM234.121 27.1055V28.1992H222.91V27.1055H227.846V24.959H224.277V21.0625H231.469V19.3398H224.25V18.2734H232.754V22.1016H225.562V23.8926H233.041V24.959H229.131V27.1055H234.121ZM242.366 20.5293C242.352 22.7646 243.705 25.0205 245.606 25.8613L244.827 26.8867C243.418 26.2168 242.304 24.8428 241.73 23.168C241.162 24.9658 240.035 26.4424 238.565 27.1602L237.772 26.0664C239.7 25.2119 241.053 22.8672 241.053 20.5293V18.4375H242.366V20.5293ZM246.713 29.6895V17.4121H248.012V29.6895H246.713ZM253.966 19.6133C253.96 21.1787 255.047 22.6621 256.92 23.291L256.263 24.3027C254.876 23.8242 253.857 22.8672 253.324 21.6641C252.791 22.9834 251.724 24.0293 250.289 24.5352L249.591 23.5234C251.506 22.874 252.661 21.2881 252.668 19.5996V19.2715H249.974V18.2188H256.605V19.2715H253.966V19.6133ZM251.218 26.4492V25.3965H259.312V29.6621H258.013V26.4492H251.218ZM258.013 24.7949V17.4121H259.312V20.5566H261.09V21.6504H259.312V24.7949H258.013ZM271.05 17.4121V22.375H273.019V23.4551H271.05V29.6621H269.765V17.4121H271.05ZM261.438 20.3926V19.3262H264.46V17.5762H265.759V19.3262H268.698V20.3926H261.438ZM262.067 24.1387C262.067 22.4707 263.353 21.2949 265.116 21.2949C266.873 21.2949 268.158 22.4707 268.165 24.1387C268.158 25.8203 266.873 26.9893 265.116 26.9961C263.353 26.9893 262.067 25.8203 262.067 24.1387ZM263.311 24.1387C263.305 25.2051 264.07 25.916 265.116 25.9023C266.155 25.916 266.914 25.2051 266.921 24.1387C266.914 23.0928 266.155 22.3682 265.116 22.3613C264.07 22.3682 263.305 23.0928 263.311 24.1387ZM283.512 17.4121V29.6621H282.199V17.4121H283.512ZM273.449 26.3809C276.703 24.8291 278.296 22.6211 278.549 19.7637H274.037V18.7246H279.862C279.862 22.3135 278.337 25.417 274.133 27.4336L273.449 26.3809Z" fill="#334155"/>
</svg>
